<?xml version="1.0" standalone="no"?><!DOCTYPE svg PUBLIC "-//W3C//DTD SVG 1.1//EN" "http://www.w3.org/Graphics/SVG/1.1/DTD/svg11.dtd"><svg t="1769408249087" class="icon" viewBox="0 0 3072 1024" version="1.1" xmlns="http://www.w3.org/2000/svg" p-id="4825" xmlns:xlink="http://www.w3.org/1999/xlink" width="384" height="128"><path d="M1843.2 556.373333c-13.653333-27.306667-13.653333-51.2 0-78.506666l225.28-430.08c1.706667-3.413333 3.413333-8.533333 6.826667-13.653334h-256c-3.413333 0-8.533333 5.12-10.24 8.533334-10.24 22.186667-20.48 44.373333-32.426667 66.56l-112.64 225.28c-3.413333 5.12-6.826667 11.946667-10.24 17.066666-1.706667 0-1.706667 0-3.413333-1.706666V34.133333H1402.88v960.853334h247.466667v-324.266667c5.12 3.413333 6.826667 6.826667 8.533333 10.24 56.32 102.4 112.64 203.093333 167.253333 305.493333 5.12 10.24 10.24 13.653333 22.186667 13.653334 13.653333 0 25.6 1.706667 39.253333 1.706666h186.026667c-5.12-13.653333-10.24-29.013333-18.773333-40.96-69.973333-136.533333-139.946667-269.653333-211.626667-404.48zM2414.933333 445.44h-192.853333c-29.013333 0-58.026667 1.706667-81.92 18.773333-35.84 23.893333-44.373333 61.44-44.373333 100.693334v435.2h211.626666V653.653333h119.466667V447.146667c-5.12 0-8.533333-1.706667-11.946667-1.706667zM878.933333 32.426667h-30.72C781.653333 34.133333 715.093333 34.133333 648.533333 34.133333v71.68h197.973334V238.933333H648.533333v73.386667h197.973334v134.826667H651.946667v69.973333h228.693333c29.013333 0 39.253333-10.24 39.253333-40.96V139.946667 78.506667c0-30.72-13.653333-42.666667-40.96-46.08zM1269.76 266.24c-1.706667-15.36-11.946667-23.893333-27.306667-25.6-13.653333-1.706667-27.306667-1.706667-42.666666-1.706667h-136.533334V102.4h196.266667c-1.706667-23.893333-3.413333-46.08-5.12-66.56-1.706667-1.706667-3.413333-1.706667-5.12-1.706667H1032.533333c-25.6 0-39.253333 13.653333-39.253333 42.666667 0 131.413333-1.706667 262.826667-1.706667 394.24 0 34.133333 13.653333 46.08 47.786667 46.08H1228.8c32.426667 0 46.08-13.653333 46.08-47.786667V295.253333c-1.706667-10.24-3.413333-18.773333-5.12-29.013333zM1194.666667 443.733333h-129.706667v-129.706666H1194.666667V443.733333z" fill="#0075D7" p-id="4826"></path></svg>