<?xml version="1.0" standalone="no"?><!DOCTYPE svg PUBLIC "-//W3C//DTD SVG 1.1//EN" "http://www.w3.org/Graphics/SVG/1.1/DTD/svg11.dtd"><svg t="1768370907657" class="icon" viewBox="0 0 1024 1024" version="1.1" xmlns="http://www.w3.org/2000/svg" p-id="4658" xmlns:xlink="http://www.w3.org/1999/xlink" width="128" height="128"><path d="M0 0m170.666667 0l682.666666 0q170.666667 0 170.666667 170.666667l0 682.666666q0 170.666667-170.666667 170.666667l-682.666666 0q-170.666667 0-170.666667-170.666667l0-682.666666q0-170.666667 170.666667-170.666667Z" fill="#FECC32" p-id="4659"></path><path d="M512 199.369697c-202.364121 0-366.390303 164.026182-366.390303 366.390303A365.164606 365.164606 0 0 0 250.414545 822.30303l99.669334-92.004848a230.089697 230.089697 0 0 1-68.949334-164.553697c0-127.503515 103.330909-230.865455 230.84994-230.865455s230.865455 103.361939 230.865454 230.865455c0 65.318788-27.10497 124.276364-70.68703 166.275879l99.126303 92.609939a365.288727 365.288727 0 0 0 107.116606-258.885818c0-202.364121-164.057212-366.405818-366.421333-366.405818z" fill="#000000" p-id="4660"></path><path d="M279.489939 522.627879c37.701818-13.187879 137.75903-32.845576 248.754425-30.409697 110.995394 2.435879 150.900364 12.955152 210.788848 26.298182 30.937212 6.888727 77.746424 42.713212 80.32194 83.673212 2.435879 38.291394-66.746182 57.607758-95.232 57.607757 0 0-105.580606-27.415273-211.999031-27.492848-106.433939-0.077576-213.767758 27.182545-213.767757 27.182545l-69.725091-50.641454 50.858666-86.217697z" fill="#000000" p-id="4661"></path></svg>