<?xml version="1.0" standalone="no"?><!DOCTYPE svg PUBLIC "-//W3C//DTD SVG 1.1//EN" "http://www.w3.org/Graphics/SVG/1.1/DTD/svg11.dtd"><svg t="1715050587756" class="icon" viewBox="0 0 1024 1024" version="1.1" xmlns="http://www.w3.org/2000/svg" p-id="3316" width="64" height="64" xmlns:xlink="http://www.w3.org/1999/xlink"><path d="M368.432 430.866h304.793v111.661h-304.793v-111.661z" fill="#1FA756" p-id="3317"></path><path d="M790.794 29.734h-540.634c-121.030 0-219.174 98.633-219.174 220.306v543.373c0 121.667 98.154 220.273 219.174 220.273h540.634c121.058 0 219.193-98.604 219.193-220.273v-543.373c0-121.667-98.154-220.306-219.193-220.306zM261.194 253.117h518.622v58.422h-518.622v-58.422zM306.225 600.831v-228.322h428.494v228.322h-428.494zM794.507 790.275h-547.975v-57.755h159.673c-14.62-30.713-33.686-63.763-57.319-99.215l57.319-22.654c22.756 33.699 43.060 74.337 61.054 121.931h108.497c21.514-36.756 40.327-77.436 56.548-121.931l62.291 22.654c-16.245 37.585-33.868 70.651-52.514 99.215h152.459v57.755z" fill="#1FA756" p-id="3318"></path></svg>