<?xml version="1.0" standalone="no"?><!DOCTYPE svg PUBLIC "-//W3C//DTD SVG 1.1//EN" "http://www.w3.org/Graphics/SVG/1.1/DTD/svg11.dtd"><svg t="1714285217659" class="icon" viewBox="0 0 1024 1024" version="1.1" xmlns="http://www.w3.org/2000/svg" p-id="2570" xmlns:xlink="http://www.w3.org/1999/xlink" width="512" height="512"><path d="M483.84 368.64h30.72v161.28h-71.68c-12.8-2.56-23.04-10.24-30.72-20.48-5.12-7.68-10.24-15.36-10.24-25.6-2.56-10.24-2.56-17.92 0-28.16 2.56-10.24 7.68-20.48 15.36-28.16 5.12-5.12 15.36-10.24 23.04-12.8 2.56 0 7.68-2.56 10.24-2.56h33.28v-43.52m-35.84 71.68c-5.12 2.56-12.8 7.68-15.36 12.8-2.56 5.12-2.56 10.24-2.56 17.92 0 7.68 2.56 15.36 5.12 20.48 5.12 7.68 12.8 10.24 20.48 10.24h25.6v-64h-28.16c0 2.56-2.56 2.56-5.12 2.56z m81.92-25.6h30.72v74.24c0 2.56 0 7.68 2.56 7.68 2.56 2.56 5.12 2.56 10.24 2.56h33.28v-87.04h30.72v112.64H563.2c-7.68 0-15.36-2.56-20.48-7.68-7.68-5.12-10.24-15.36-10.24-23.04-2.56-25.6-2.56-51.2-2.56-79.36z" fill="#FCFBFF" p-id="2571"></path><path d="M468.48 102.4c10.24-2.56 17.92 0 28.16 5.12 12.8 7.68 20.48 20.48 25.6 35.84 7.68 20.48 7.68 46.08-2.56 66.56-5.12 10.24-10.24 20.48-17.92 28.16-7.68 5.12-15.36 10.24-25.6 10.24s-17.92-2.56-25.6-7.68c-10.24-10.24-17.92-23.04-23.04-35.84-5.12-20.48-5.12-43.52 2.56-61.44 5.12-15.36 10.24-25.6 23.04-33.28l15.36-7.68z m138.24 10.24c7.68-2.56 12.8 0 20.48 2.56 7.68 5.12 12.8 12.8 20.48 20.48 7.68 10.24 12.8 23.04 15.36 35.84 2.56 10.24 0 17.92-2.56 28.16-2.56 10.24-7.68 20.48-12.8 30.72-5.12 7.68-12.8 15.36-20.48 20.48-7.68 5.12-17.92 7.68-25.6 5.12-10.24 0-23.04-5.12-30.72-12.8-7.68-7.68-12.8-17.92-15.36-28.16-2.56-10.24-2.56-23.04 0-33.28s5.12-20.48 10.24-28.16c5.12-10.24 12.8-17.92 20.48-23.04 5.12-10.24 12.8-15.36 20.48-17.92z m-245.76 97.28c10.24-2.56 20.48 0 28.16 5.12 12.8 7.68 23.04 17.92 30.72 33.28 2.56 5.12 5.12 10.24 5.12 17.92 2.56 15.36 2.56 30.72-2.56 46.08-2.56 10.24-7.68 20.48-15.36 25.6-10.24 7.68-23.04 12.8-35.84 12.8-10.24 0-20.48-5.12-30.72-10.24-10.24-10.24-17.92-23.04-20.48-35.84-2.56-10.24-2.56-17.92-2.56-28.16 2.56-15.36 7.68-30.72 15.36-46.08 5.12-10.24 15.36-17.92 28.16-20.48z m320 35.84c12.8-2.56 23.04 0 35.84 5.12 10.24 5.12 17.92 12.8 23.04 23.04 5.12 7.68 7.68 17.92 7.68 25.6 0 12.8 0 25.6-2.56 38.4-2.56 10.24-5.12 17.92-10.24 25.6-5.12 7.68-12.8 12.8-23.04 15.36-7.68 2.56-17.92 2.56-25.6 2.56-10.24 0-20.48-5.12-28.16-10.24-7.68-5.12-12.8-12.8-15.36-23.04-2.56-12.8-5.12-25.6-2.56-35.84 0-12.8 2.56-25.6 7.68-38.4 2.56-7.68 10.24-17.92 17.92-23.04 2.56-2.56 7.68-5.12 15.36-5.12z m-161.28 48.64c12.8-2.56 23.04 0 35.84 5.12 17.92 7.68 30.72 23.04 40.96 38.4 12.8 17.92 28.16 33.28 40.96 48.64 15.36 15.36 30.72 28.16 46.08 40.96l7.68 7.68c12.8 12.8 20.48 28.16 20.48 46.08 2.56 17.92-2.56 35.84-10.24 53.76-5.12 12.8-15.36 23.04-25.6 28.16-15.36 7.68-35.84 10.24-53.76 10.24-17.92 0-35.84-5.12-51.2-10.24-20.48-5.12-40.96-7.68-64-5.12-10.24 0-20.48 2.56-28.16 5.12-23.04 2.56-43.52 5.12-66.56 2.56-17.92 0-35.84-10.24-48.64-23.04-7.68-7.68-12.8-17.92-15.36-30.72-2.56-10.24-5.12-20.48-5.12-30.72 0-12.8 5.12-25.6 10.24-35.84 7.68-15.36 23.04-30.72 35.84-40.96 5.12-2.56 7.68-5.12 12.8-10.24 7.68-5.12 15.36-12.8 20.48-17.92 12.8-12.8 25.6-25.6 33.28-40.96 2.56-5.12 5.12-7.68 7.68-12.8 17.92-15.36 35.84-25.6 56.32-28.16m-35.84 74.24v46.08h-33.28c-2.56 0-7.68 0-10.24 2.56-7.68 2.56-15.36 7.68-23.04 12.8-7.68 7.68-12.8 17.92-15.36 28.16-2.56 10.24-2.56 17.92 0 28.16 2.56 7.68 5.12 17.92 10.24 25.6 7.68 10.24 17.92 17.92 30.72 20.48 5.12 2.56 12.8 0 17.92 0h53.76v-161.28c-10.24-2.56-20.48-2.56-30.72-2.56m46.08 46.08v81.92c0 7.68 2.56 17.92 10.24 23.04 5.12 5.12 12.8 7.68 20.48 7.68h74.24v-112.64h-30.72v87.04h-33.28c-2.56 0-7.68 0-10.24-2.56-2.56-2.56-2.56-5.12-2.56-7.68v-74.24c-7.68-2.56-17.92-2.56-28.16-2.56z" fill="#306CFF" p-id="2572"></path><path d="M448 440.32c2.56 0 5.12-2.56 7.68-2.56h28.16v64h-25.6c-7.68 0-17.92-5.12-20.48-10.24-5.12-5.12-5.12-12.8-5.12-20.48 0-5.12 0-12.8 2.56-17.92 2.56-5.12 7.68-10.24 12.8-12.8z" fill="#306CFF" p-id="2573"></path><path d="M325.12 701.44l7.68-20.48H240.64v-28.16h289.28v28.16H409.6l-7.68 20.48h117.76v207.36H248.32v-207.36h76.8z m-5.12 79.36h130.56v-53.76h-130.56v53.76z m0 25.6v74.24h130.56v-74.24h-130.56zM668.16 678.4v20.48h30.72v28.16h-30.72v17.92h28.16v28.16h-28.16v130.56h-66.56v-130.56H588.8v130.56h-35.84v-158.72h48.64v-17.92h-53.76v-28.16h53.76v-20.48h-51.2v-28.16h148.48v28.16h-30.72z m158.72 156.16h12.8v28.16h-12.8v43.52h-66.56v-43.52h-81.92v-28.16h81.92v-69.12l-53.76-7.68v-33.28l53.76 7.68V691.2l-51.2-7.68v-33.28l51.2 7.68v-12.8h66.56v189.44z" fill="#306CFF" p-id="2574"></path></svg>