<?xml version="1.0" standalone="no"?><!DOCTYPE svg PUBLIC "-//W3C//DTD SVG 1.1//EN" "http://www.w3.org/Graphics/SVG/1.1/DTD/svg11.dtd"><svg t="1769410623598" class="icon" viewBox="0 0 1024 1024" version="1.1" xmlns="http://www.w3.org/2000/svg" p-id="15886" xmlns:xlink="http://www.w3.org/1999/xlink" width="128" height="128"><path d="M0 0h1024v1024H0z" fill="#FFFFFF" p-id="15887"></path><path d="M682.402909 302.545455l12.730182 70.562909 44.986182-45.125819L682.402909 302.545455z m-398.661818 123.48509h61.556364v42.519273H309.527273v9.541818h35.793454v36.631273c0 13.777455 10.705455 24.971636 23.970909 24.971636h74.472728a12.218182 12.218182 0 0 0 8.680727-3.770181 12.613818 12.613818 0 0 0 3.490909-8.913455v-36.770909l-14.964364 24.482909H370.269091v-36.631273h51.130182v-9.541818H370.269091v-42.519273h76.893091l-6.632727 29.928728 40.727272-39.470546-25.367272-29.952-6.609455 29.952h-79.034182v-38.167272h51.130182v-9.541819H370.269091v-26.065454l17.454545-10.402909-42.402909-24.273455v108.450909h-61.533091v-12.148363l-27.880727-17.803637v239.057455S255.185455 677.655273 232.727273 721.454545c0 0 51.037091-43.380364 51.037091-124.928v-170.496z m303.988364 175.895273l27.880727 17.780364V373.108364l-27.880727 17.780363v0.884364h-25.367273v-0.884364l-27.857455-17.780363v246.597818l27.857455-17.780364v-28.625454h25.367273v28.625454z m-25.367273-38.167273V401.338182h25.367273v162.443636h-25.367273zM768 610.443636v-9.541818h-56.576a172.753455 172.753455 0 0 0 4.794182-27.578182l-33.815273-8.238545c-0.930909 13.032727-2.629818 24.901818-4.840727 35.816727h-39.959273v9.541818h37.794909c-19.037091 77.451636-66.210909 98.187636-66.210909 98.187637 62.510545-11.659636 88.715636-62.301091 99.560727-98.210909H768z" fill="#989898" p-id="15888"></path><path d="M685.754182 552.192h74.24v0.116364l27.717818 17.664V372.363636l-27.531636 17.570909H685.614545L658.059636 372.363636v197.632l27.717819-17.687272v-0.116364z m0-143.476364v-9.309091h74.24v35.537455h-74.24v-26.228364z m0 35.723637h74.24v52.596363h-74.24v-52.596363z m0 89.134545v-27.066182h74.24v36.189091h-74.24v-9.099636z m-195.002182 146.944h-43.287273a4.514909 4.514909 0 0 1-3.211636-1.396363 4.654545 4.654545 0 0 1-1.303273-3.258182v-111.918546l-23.365818 16.593455v2.606545H363.752727v-2.606545l-23.365818-16.593455v85.108364S341.387636 692.736 302.545455 721.454545c0 0 61.207273-31.464727 61.207272-73.914181v-54.923637h55.854546v103.330909c0 6.237091 4.817455 11.287273 10.798545 11.287273h66.327273a12.171636 12.171636 0 0 0 7.517091-2.443636c20.154182-15.592727 4.491636-75.985455 4.491636-75.985455 2.885818 46.964364-17.989818 51.712-17.989818 51.712z m240.546909-50.152727c22.109091 70.679273 67.258182 76.427636 67.258182 76.427636L814.545455 672.349091c-61.230545 0-83.246545-41.984-83.246546-41.984z" fill="#989898" p-id="15889"></path><path d="M744.727273 535.272727l5.725091 69.818182L768 576.558545 744.727273 535.272727z" fill="#989898" p-id="15890"></path></svg>