<?xml version="1.0" standalone="no"?><!DOCTYPE svg PUBLIC "-//W3C//DTD SVG 1.1//EN" "http://www.w3.org/Graphics/SVG/1.1/DTD/svg11.dtd"><svg t="1769413998431" class="icon" viewBox="0 0 1024 1024" version="1.1" xmlns="http://www.w3.org/2000/svg" p-id="24009" xmlns:xlink="http://www.w3.org/1999/xlink" width="128" height="128"><path d="M1013.90212493 208.1252389c0.35865792-46.68063765-19.74148318-63.59271153-64.21499699-63.49155207-288.1183597 0.64681061-576.23672241 0.78475343-864.35201755-0.03371882-44.20682175-0.1256847-56.54218267 19.55142543-56.18658931 61.16794302 1.54192012 180.89513193 1.99560543 361.82705018-0.18699325 542.70992098-0.59469564 49.37210118 20.5170401 59.80994868 64.29776624 58.92710032 107.10674272-2.1642055 214.54455054 3.90538002 321.36314044-2.05998152 94.65182605-5.28483214 178.04120034 9.31589683 248.47292526 77.8715659 20.36683315 19.82424949 48.97052794 31.19093129 82.52491604 51.79380514-5.01507252-47.16497727-8.73959136-82.17545477-13.64737238-128.32883442 78.58581722 0 149.71033269-1.15260793 220.77660707 0.44755623 40.40566566 0.91043813 61.71972331-10.33975554 61.31201791-56.11301956C1012.45523222 570.06264509 1012.51347627 389.0816794 1013.90212493 208.1252389zM356.8479421 732.34437953c-48.47698873 0-97.03674668 0-151.41165631 0 0-170.12621329 0-339.92442602 0-516.88045907 51.8673749 0 98.68595532 0 151.41165631 0C356.8479421 388.12832582 356.8479421 557.64758236 356.8479421 732.34437953zM840.84534285 363.98485886c-36.47576037 2.65774169-68.86834709 5.02120464-113.25603 8.25525176 0 120.74185399 0 240.07053405 0 361.85770449-61.25990592 0-110.28254579 0-166.92282044 0 0-120.72652533 0-238.32935958 0-361.16797838-41.3559547-3.16047745-75.63072621-5.7814328-113.43995572-8.67215074 0-49.4977829 0-96.04660677 0-147.0311303 131.20115914 0 260.45576036 0 393.61880616 0C840.84534285 268.60039134 840.84534285 314.69552697 840.84534285 363.98485886z" fill="#d81e06" p-id="24010"></path><path d="M1211.45489983 452.92882485c6.14315824 5.0303982 12.84729034 7.26817639 20.11853423 6.70719957 7.25591532-0.55178023 17.60179991 0.41996649 31.01313463 2.93363332s29.46814693 4.75450958 48.1980325 6.70719961c18.71455697 1.96495115 32.54585809 7.83221776 41.49083303 17.60179994 8.93271376 9.78184324 14.52409168 21.3753662 16.76493446 34.78670086 2.22858165 13.41133472 2.78955846 23.05216758 1.6767984 28.91943424-1.12501815 5.86726663-6.70719961 16.90900934-16.7649345 33.1098995-10.0577349 16.21315122-18.58580772 30.88132085-25.5658344 44.00449978-6.9922848 13.13544306-19.14678761 35.91171906-36.46349927 68.3135023 29.05124798 1.12501815 55.0339814 7.41225127 77.95433519 18.85863486 22.90808973 11.45864463 36.17534654 23.7572193 39.81403453 36.88040121 3.62949142 13.13544306 4.61043471 24.59408772 2.93363335 34.36673442-1.67679839 9.78184324-6.01134149 14.95631935-12.9913682 15.50809954-6.9922848 0.56404134-15.64910994 2.38185312-25.98580091 5.44730015-10.34588464 3.07770822-19.98671756 5.44730015-28.91943425 7.12410156-8.94497482 1.67679839-22.77627603 4.33454309-41.49083297 7.96403452-18.72682111 3.62949142-8.2491197-13.26725686 31.43310112-50.71169937-31.85306754-5.57911391-53.64533271-9.91365699-65.37986901-12.99136818-11.73453329-3.06544709-18.30991913-5.30322529-19.69856782-6.70719961-1.40090976-1.38864867-5.59137805-3.77050175-12.57446619-7.12410164-6.9922848-3.3535998-12.71547661-11.73453329-17.18183346-25.14586789-4.47861798-13.41133472-6.15541938-23.60088035-5.03039824-30.59316813 1.11275706-6.98002367 4.1904682-18.85863488 9.22086645-35.62356631s9.64083293-28.49946773 13.83130117-35.20359984 16.05681524-32.12589162 35.62356631-76.27753383c-2.80181957-6.14315824-10.76585107-11.44638054-23.88903301-15.92500151-13.13544306-4.46635685-27.1108191-11.44638054-41.9107995-20.95539972-14.8122445-9.49675808-23.05216758-19.83038157-24.72590141-31.01313463-1.67679839-11.17355646-0.41996649-21.9240819 3.77050171-32.26996645C1190.91946356 431.27756704 1199.15632218 435.05113329 1211.45489983 452.92882485zM1241.63116593 226.61295468c40.23400107-3.90231553 68.86528253 1.96495115 85.91530225 17.6017999 17.04082311 15.64910994 27.37444659 29.06044454 31.01313465 40.23400109 3.62949142 11.18275308 2.78955846 21.09947756-2.51366692 29.75629964-5.31548642 8.66908623-17.32591129 11.73453329-36.0435328 9.22086643-18.72682111-2.51366683-32.55811925-3.06544709-41.49083291-1.6767984-8.94497482 1.40090976-16.90900934 0.41996649-23.88903306-2.9336333-6.9922848-3.3535998-7.544068-9.64083293-1.6767984-18.85863485s5.57911391-16.89674821-0.83686843-23.05216757c-6.43130801-6.14315824-13.27951792-12.15449977-20.53543321-18.02176644-7.26817639-5.86726663-9.78184324-15.08813309-7.54406808-27.65953475C1226.25488018 218.64892012 1232.12214679 217.11619663 1241.63116593 226.61295468z" fill="#d81e06" p-id="24011"></path><path d="M2077.25073959 620.76514796c-14.29418307-44.48271033-47.59414033-71.32376986-91.51280931-82.16932574-48.74981278-12.03801166-96.79150934-11.49236348-131.50464053 27.19358536-26.02871633-10.73826433-48.55669043-20.03270047-71.42492932-29.4650824 17.81331541-22.3041975 36.26118039-43.80831294 52.70117578-66.75318901 6.77157271-9.45383965 12.57140174-21.97619388 12.65416795-33.14975037 0.07356976-10.2048743-8.16941796-20.47106012-13.50636207-32.4079123 59.2244496-31.20932148 119.46356138-62.53206646 179.27964209-94.64569702 33.30915385-17.8838206 36.34701417-49.35370804 4.80662161-70.14970426-14.22980695-9.3833345-35.27717253-15.87288652-51.53630673-13.23353797-38.02994463 6.17381253-75.06361733 18.54902437-112.43142268 28.67113237-8.20620432 2.22244957-16.1242559 5.5178053-25.50759039 8.77944229-8.6905439-49.90855275-40.48843195-77.38416181-81.09641654-95.78910838-8.53114039-3.86552916-24.56956251-3.04092483-30.43682914 2.60256518-5.30935437 5.10703545-3.42716947 20.2135617-1.0882348 30.04751692 2.33280561 9.79103986 9.18101557 18.50917353 14.40147458 28.35845739-6.5907115 4.53379748-12.65416799 7.41225127-16.92740254 11.9675065-5.4840865 5.84887344-9.53354139 13.04654474-14.19915264 19.66178143 7.1087729 2.08450379 14.24820015 6.01747357 21.31712213 5.89792098 18.99044861-0.32187155 32.47535297 6.75931157 41.28851405 25.90916368-42.72007812 23.66525639-85.14280993 47.16191279-133.92634455 74.18689797 5.5270019-18.3804243 10.40106417-29.55091623 11.90619792-41.15670016 1.25989946-9.72666675-1.41010638-19.96219527-2.34200219-29.97394731-10.92219011 2.85699607-27.38364318 2.1825987-31.83467441 9.1656899-22.05896023 34.60583966-43.51096361 70.0975922-60.0981014 107.5297737-11.96137745 26.99126649-0.69279056 41.68089076 29.82680486 60.08890485 23.20237453 13.99376919 41.23640206 6.59377902 55.17805925-11.71307555 38.89439981-51.07342483 92.71752922-83.24529636 146.34140723-114.54658381 31.32274502-18.28539392 67.54407453-28.18066075 101.55828006-41.85255835 1.37332 2.90297903 2.74664009 5.8028935 4.11996309 8.70587257-56.38891124 37.33715104-111.48726574 76.86610045-169.66333138 111.1807228-34.10003937 20.11240222-27.67792798 64.24565124 6.75931158 81.34778591-7.85674303 5.86420208-15.00230225 10.03627418-20.71936199 15.66137097-32.33127511 31.81628118-65.53007595 62.90298554-95.65729457 96.70874313-8.55566563 9.60098207-14.03055255 30.03832036-9.5764598 40.82563217 4.31614995 10.45317611 23.03377442 15.24140455 35.83814935 21.70030526 3.09610138 1.56031329 7.81995668-0.11035603 7.78317027-0.11035604 5.49634763 18.87089593 9.79103986 34.46176177 14.62525119 49.88096301 2.87538926 9.16875451 8.88979834 17.90528129 9.53967343 27.11695116 2.42783605 34.41271434 9.83395527 67.94258329 40.7643236 86.35059434 42.42579632 25.24396289 135.95873627 25.23169879 174.66001076-41.83722971 33.13748923-57.42809561 45.55561653-117.72545134 9.03080866-179.55859826-3.6999966-6.26577541-8.83155427-12.34149305-10.19874518-19.13145889-1.18939426-5.91018208 0.1256847-14.25739669 3.78276285-18.6716416 3.74904102-4.5246009 12.81357152-9.12583906 17.60793195-7.59924454 40.04700779 12.76145951 77.56502304 30.63301902 112.18925286 60.21765397-7.75251602 5.12849315-13.78225369 7.68814292-17.78572862 12.09319121-6.21366342 6.83594883-11.04480724 14.92872956-16.46145307 22.48812326 8.0989128 5.51474079 16.51969712 16.02616095 24.23236225 15.52955726 17.31671472-1.11582159 34.99821637-5.9224462 51.23589287-12.44878152C2079.58354518 662.89359491 2086.52065348 649.60794492 2077.25073959 620.76514796zM1801.28687959 608.56466823c-15.83303867 41.16589685-40.5252183 5.45343222-61.32734652 11.5260823C1759.00209665 583.74373633 1768.54483467 582.20488374 1801.28687959 608.56466823zM1766.8649687 786.38208893c-28.43509165 8.48209298-45.85296581 1.17100114-53.05063713-27.67179588-4.27629904-17.14505009-0.78475343-36.23052605-0.78475338-54.44235028 2.32360903 0.04904746 4.64721803 0.0980949 6.97082711 0.1471424 4.6073672 10.9129935 6.66428419 24.27221316 14.32483735 32.25464086 19.46559158 20.28406683 48.54749388 15.40694014 62.92751074-9.40172768 10.42558635-17.98498004 19.16211321-36.95090641 31.07750771-60.21765405C1839.57738725 731.15498525 1817.43872533 771.29702043 1766.8649687 786.38208893z" fill="#d81e06" p-id="24012"></path></svg>