<?xml version="1.0" standalone="no"?><!DOCTYPE svg PUBLIC "-//W3C//DTD SVG 1.1//EN" "http://www.w3.org/Graphics/SVG/1.1/DTD/svg11.dtd"><svg t="1714272407008" class="icon" viewBox="0 0 1024 1024" version="1.1" xmlns="http://www.w3.org/2000/svg" p-id="1618" xmlns:xlink="http://www.w3.org/1999/xlink" width="512" height="512"><path d="M299.27936 624.43008v87.48544c0 14.64832 10.70592 21.24288 23.78752 14.65856l83.49696-42.01984v-32.76288L323.072 609.7664c-13.08672-6.58432-23.79264 0.01536-23.79264 14.66368zM654.42304 436.03456c36.72064 0 66.59584-29.87008 66.59584-66.59072s-29.8752-66.59584-66.59584-66.59584c-36.71552 0-66.5856 29.8752-66.5856 66.59584s29.87008 66.59072 66.5856 66.59072zM443.56096 435.65056c47.73376 0 86.56384-38.8352 86.56384-86.56896s-38.83008-86.56896-86.56384-86.56896-86.56896 38.8352-86.56896 86.56896 38.8352 86.56896 86.56896 86.56896z" fill="#FF4A08" p-id="1619"></path><path d="M849.92 51.2H174.08c-67.8656 0-122.88 55.0144-122.88 122.88v675.84c0 67.8656 55.0144 122.88 122.88 122.88h675.84c67.8656 0 122.88-55.0144 122.88-122.88V174.08c0-67.8656-55.0144-122.88-122.88-122.88zM443.56096 204.8c54.05184 0 101.22752 29.89056 125.93664 73.99936 22.24128-20.85376 52.11136-33.664 84.93056-33.664 68.54656 0 124.30848 55.76704 124.30848 124.30848s-55.76704 124.30336-124.30848 124.30336c-41.40544 0-78.12608-20.37248-100.73088-51.60448-26.48576 31.29856-66.01728 51.22048-110.13632 51.22048-79.55968 0-144.2816-64.72704-144.2816-144.2816S364.00128 204.8 443.56096 204.8z m336.65536 505.63584c0 59.97568-48.78848 108.76416-108.76416 108.76416H515.328c-47.05792 0-87.22432-30.04416-102.34368-71.96672l-87.81824 42.40384c-9.43616 4.5568-18.97984 6.8608-28.37504 6.8608h-0.00512c-30.70976 0-53.00224-24.3712-53.00224-57.9328v-140.5696c0-33.57696 22.29248-57.94304 53.00736-57.94304 9.3952 0 18.93888 2.30912 28.36992 6.86592l87.59808 42.29632c14.93504-42.26048 55.26528-72.63232 102.56896-72.63232h156.11904c59.97568 0 108.76416 48.7936 108.76416 108.76928v85.08416z" fill="#FF4A08" p-id="1620"></path><path d="M671.45216 574.28992H515.328c-28.14976 0-51.05664 22.90688-51.05664 51.05664v85.08928c0 28.14976 22.90688 51.05664 51.05664 51.05664h156.11904c28.14976 0 51.05664-22.90688 51.05664-51.05664v-85.08928c0-28.14976-22.90176-51.05664-51.05152-51.05664z" fill="#FF4A08" p-id="1621"></path></svg>