<?xml version="1.0" standalone="no"?><!DOCTYPE svg PUBLIC "-//W3C//DTD SVG 1.1//EN" "http://www.w3.org/Graphics/SVG/1.1/DTD/svg11.dtd"><svg t="1698656122855" class="icon" viewBox="0 0 1024 1024" version="1.1" xmlns="http://www.w3.org/2000/svg" p-id="25775" xmlns:xlink="http://www.w3.org/1999/xlink" width="64" height="64"><path d="M0 0m113.777778 0l796.444444 0q113.777778 0 113.777778 113.777778l0 796.444444q0 113.777778-113.777778 113.777778l-796.444444 0q-113.777778 0-113.777778-113.777778l0-796.444444q0-113.777778 113.777778-113.777778Z" fill="#DA0A0A" p-id="25776"></path><path d="M244.679111 644.209778c5.518222-9.671111-4.209778-42.211556-4.209778-42.211556-39.253333-37.717333-29.923556 28.103111-29.923555 28.103111 27.534222 47.957333 34.133333 14.108444 34.133333 14.108445z m158.151111-28.103111s-44.088889 1.479111-34.247111 32.824889c0 0 66.332444 17.066667 72.647111-14.108445 0 0 4.551111-29.240889-38.456889-18.773333zM227.555556 470.641778c-36.408889-42.552889 12.856889-56.32 12.856888-56.32 18.773333-57.571556-25.656889-51.541333-25.656888-51.541334-42.552889-8.419556-17.066667 23.438222-17.066667 23.438223-7.395556 32.142222-29.923556 42.211556-29.923556 42.211555-58.993778-13.937778-12.856889-60.984889-12.856889-60.984889-2.275556-31.971556 42.723556-32.824889 42.723556-32.824889 15.189333-2.104889 12.856889-18.773333 12.856889-18.773333-7.395556-36.408889-55.580444-18.773333-55.580445-18.773333-25.543111 18.773333-51.256889 89.144889-51.256888 89.144889-16.952889 35.328 25.6 56.32 25.6 56.32 15.132444 28.330667-25.6 75.036444-25.6 75.036444 2.218667 77.824 42.723556 60.984889 42.723555 60.984889 3.982222 13.539556 55.580444 4.664889 55.580445 4.664889-1.194667-11.093333 38.456889-37.546667 38.456888-37.546667 7.395556-53.532444-12.856889-75.093333-12.856888-75.093333z m-38.456889 79.758222s-63.544889 1.194667-51.256889-28.16c0 0 14.791111-39.936 21.333333-37.546667 0 0 29.354667-37.546667 51.313778 9.386667 0 0 8.817778 40.391111-21.390222 56.32z m-102.513778 117.304889c-8.760889 60.416 29.866667 37.546667 29.866667 37.546667-2.332444-28.785778 17.066667-42.268444 17.066666-42.268445v-60.984889c-35.271111-12.856889-46.933333 65.706667-46.933333 65.706667z m72.590222-46.933333c-13.027556 139.605333 29.923556 65.706667 29.923556 65.706666 7.566222-118.385778-29.923556-65.706667-29.923556-65.706666z m333.255111-220.501334c17.806222-35.271111-21.333333-65.649778-21.333333-65.649778l-25.6-4.664888c-28.728889-16.952889-81.237333-4.721778-81.237333-4.721778-30.72 10.695111-85.447111 4.664889-85.447112 4.664889-39.139556 52.167111-4.266667 103.253333-4.266666 103.253333v98.474667c-6.599111 90.282667-38.456889 136.078222-38.456889 136.078222 3.584 56.775111 34.190222 23.438222 34.190222 23.438222 21.560889-13.425778 29.923556-122.026667 29.923556-122.026667l21.333333 9.386667v56.32c11.150222 22.698667 32.426667 13.198222 34.190222 9.386667 1.706667-3.811556 0-14.051556 0-14.051556-13.596444-6.314667-4.266667-51.655111-4.266666-51.655111-0.682667-24.177778 89.713778-14.051556 89.713777-14.051555 19.114667-51.768889-46.990222-37.546667-46.990222-37.546667-14.392889-1.706667-8.533333-32.824889-8.533333-32.824889 30.72-17.464889 67.015111-1.592889 68.323555 9.386667 1.365333 10.979556 0 154.794667 0 154.794666 12.174222 89.429333 42.780444 32.881778 42.780445 32.881778 7.054222-23.381333-12.856889-93.866667-12.856889-93.866667-12.231111-52.736 8.533333-197.006222 8.533333-197.006222zM360.106667 536.348444c-43.235556-8.590222-55.580444 4.664889-55.580445 4.664889-4.494222-70.428444 55.523556-42.211556 55.523556-42.211555v37.546666zM453.973333 456.590222l-38.456889-4.721778 4.323556-23.438222c15.189333-10.467556 12.8-46.933333 12.8-46.933333-42.666667-27.363556-38.456889 37.546667-38.456889 37.546667-1.706667 52.565333-34.133333 42.211556-34.133333 42.211555h-47.047111c-41.813333-32.256-8.533333-89.144889-8.533334-89.144889l42.666667-9.386666c2.048-17.976889 64.113778-9.386667 64.113778-9.386667 38.798222 2.616889 42.780444 32.824889 42.780444 32.824889v70.428444z m341.845334 136.078222s-82.318222 55.409778-102.570667 79.758223c0 0-62.008889 19.740444-81.180444 23.438222 0 0-54.044444 62.008889 51.256888 32.824889 0 0 57.002667-26.624 81.180445-56.32 0 0 71.509333-59.733333 98.304-84.423111 0 0 4.721778-52.110222-46.990222 4.721777z m140.970666 0c1.706667-68.949333-76.913778-103.253333-76.913777-103.253333-6.826667-0.227556-59.790222-4.664889-59.790223-4.664889-40.049778-4.949333-25.6 32.824889-25.6 32.824889-112.924444 103.082667-175.217778 103.196444-175.217777 103.196445-53.646222 36.522667 8.533333 42.268444 8.533333 42.268444 53.646222 3.982222 200.817778-136.078222 200.817778-136.078222 14.620444-8.362667 34.190222 0 34.190222 0-0.568889 19.968 8.533333 28.16 8.533333 28.16 84.366222-15.473778 38.456889 84.423111 38.456889 84.423111-26.510222 52.679111-89.713778 46.933333-89.713778 46.933333-38.684444-26.680889-34.133333 0-34.133333 0 14.108444 107.292444 119.580444 18.773333 119.580444 18.773334 67.982222-56.888889 51.256889-112.64 51.256889-112.64z m-136.704-192.398222c48.298667-11.719111 12.8-32.824889 12.8-32.824889-15.872-11.719111-111.104 0-111.104 0-24.291556 21.048889 0 32.824889 0 32.824889h98.304zM334.449778 386.275556c-16.213333 18.716444 4.266667 51.598222 4.266666 51.598222 15.075556 18.773333 25.6 4.664889 25.6 4.664889v-32.824889c-9.443556-35.100444-29.866667-23.438222-29.866666-23.438222z m260.551111 187.619555c111.729778-6.030222 158.151111-93.809778 158.151111-93.809778l106.780444-4.664889c36.067556-14.677333 34.190222-37.546667 34.190223-37.546666 9.216-13.368889 0-60.984889 0-60.984889-3.640889-63.829333-29.923556-75.093333-29.923556-75.093333-20.707556-4.892444-29.866667-9.386667-29.866667-9.386667-16.896-7.224889-64.113778 0-64.113777 0-24.803556-17.806222-81.180444 0-81.180445 0-46.535111 17.408-8.533333 42.268444-8.533333 42.268444 174.648889-42.666667 175.160889 23.438222 175.160889 23.438223 17.294222 76.060444-17.066667 75.093333-17.066667 75.093333-46.364444-2.275556-38.513778 9.329778-38.513778 9.329778-15.701333 1.877333-21.333333-4.664889-21.333333-4.664889-30.72-11.605333-59.790222 9.386667-59.790222 9.386666h-29.923556c-15.985778-2.275556-21.390222-28.16-21.390222-28.16v-75.093333c-22.357333-39.253333-38.456889 4.664889-38.456889 4.664889V447.146667c20.878222 54.613333 76.913778 32.881778 76.913778 32.881777-10.126222 28.785778-72.590222 51.598222-72.590222 51.598223-16.952889 2.844444-42.780444 0-42.780445 0-32.312889 25.770667 4.323556 42.211556 4.323556 42.211555z" fill="#FFFFFF" p-id="25777"></path></svg>