<?xml version="1.0" standalone="no"?><!DOCTYPE svg PUBLIC "-//W3C//DTD SVG 1.1//EN" "http://www.w3.org/Graphics/SVG/1.1/DTD/svg11.dtd"><svg t="1698655918033" class="icon" viewBox="0 0 1024 1024" version="1.1" xmlns="http://www.w3.org/2000/svg" p-id="10636" xmlns:xlink="http://www.w3.org/1999/xlink" width="64" height="64"><path d="M470.316206 2.140704a60.498376 60.498376 0 0 1 12.683797-2.086151h58.224472c9.53371-0.542399 18.775358 3.150088 28.455098 2.649411a23.323167 23.323167 0 0 1 11.619861 3.463011 22.446984 22.446984 0 0 1-1.022214 4.985901 56.889335 56.889335 0 0 1-6.946883 0.667568c-1.689782 0.646707-3.46301 1.168245-5.173654 1.710644a49.066269 49.066269 0 0 1-11.598999 0.83446 25.033811 25.033811 0 0 1-12.892412 2.670273c-1.731505 0.646707-3.525595 1.126521-5.277962 1.627198s-3.46301 0.813599-5.194516 1.189106c-3.421287 0.980491-6.863436 1.856674-10.430754 2.524242a28.768021 28.768021 0 0 1-10.430755 2.378213 17.440222 17.440222 0 0 1-9.053895 2.62855 40.533912 40.533912 0 0 1-9.116479 2.670273c-5.277962 1.481167-10.180416 4.172302-15.583547 5.173654-31.146233 11.911922-62.000405 25.471903-89.558459 44.351568a327.817753 327.817753 0 0 0-27.412023 19.192589c-6.988606 6.112422-13.977211 12.203983-21.15357 18.066066-8.824418 8.866141-17.732283 17.648837-26.494116 26.556701-10.263862 12.704659-21.466493 24.637442-30.353496 38.468623a421.882297 421.882297 0 0 0-39.887205 71.534114c-2.378212 6.028976-4.777286 11.932783-7.656174 17.857452a580.826134 580.826134 0 0 0-22.363537 75.706416c-0.500676 6.258453-3.212672 12.099675-3.129227 18.399851 0 4.485224-3.004057 8.344604-2.503381 12.99672 0.521538 5.778638-2.753719 10.994015-2.607689 16.689208 0.208615 6.112422-1.481167 11.932783-2.378212 17.961759-0.667568 6.446206 0.667568 13.059305-1.022214 19.401203-1.251691 6.487929 0.479815 13.226197-1.105659 19.714126a55.950567 55.950567 0 0 0-0.667569 12.767244c0.166892 5.486577-0.563261 11.0566 0.855322 16.438869 1.439444 8.782695-0.813599 17.83659 1.439444 26.535839 1.001352 8.135989-0.479815 16.438869 0.730153 24.59572 1.10566 3.796795 0.604984 7.802204 1.335137 11.640722 2.086151 8.052542-0.438092 16.543177 1.794089 24.574857 0.500676 5.152793 0 10.430755 1.502029 15.437517 0.333784 11.160907 0 22.363538 0.166892 33.545306a103.055855 103.055855 0 0 1-22.488707 55.324722 99.217337 99.217337 0 0 1-62.584527 31.292264c-8.344604 0-16.501454 0.146031-24.720888-0.166892a103.848592 103.848592 0 0 1-34.859581-12.516906c-9.825771-4.777286-17.064714-13.038443-25.200703-20.027048-8.010819-10.138693-15.687855-21.278739-18.274682-34.171152a450.107919 450.107919 0 0 1-18.775358-110.190491c-1.52289-7.155498-0.83446-14.603056-0.95963-21.967169 0.125169-5.778638-0.500676-11.557276 0.646707-17.231606 1.648059-8.553219-0.312923-17.356776 1.272552-25.951717 1.689782-11.035738 2.086151-22.196646 4.172302-33.1698 0-5.778638 2.378212-11.035738 2.962334-16.689207 16.125946-80.275087 50.255375-157.546116 102.346563-221.131996a234.858869 234.858869 0 0 1 16.876961-19.35948c9.992663-12.370875 22.050615-22.94766 33.065492-34.338044 9.930078-8.115127 18.921389-17.315052 29.206113-25.033811a506.517439 506.517439 0 0 1 45.039998-32.606538c15.833885-9.199925 31.292264-19.067419 48.106639-26.661009 26.014302-13.601704 53.927001-23.114552 81.8397-31.876386 8.84528-2.670273 17.940898-4.443501 26.68187-7.447558 6.258453-0.333784 11.911922-2.962334 18.10779-3.31698 3.880241-0.521538 7.46842-2.378212 11.452969-2.378212 5.716053 0 10.994015-2.837165 16.689207-2.649412a87.242831 87.242831 0 0 0 14.957702-2.086151c5.423992-1.293414 11.035738 0 16.45973-1.189106z" fill="#FDD905" p-id="10637"></path><path d="M593.065325 21.4376c5.716053-0.2712 10.973154-3.004057 16.689207-2.89975a179.847069 179.847069 0 0 1 18.128652 0.166892c54.531985 8.532357 106.685757 29.706789 153.937075 58.078441 8.344604 4.777286 16.271977 10.597647 24.407965 15.875608 38.531207 26.222917 72.097375 58.954624 102.221394 94.231437 20.861509 26.035163 40.533912 53.259433 55.42903 83.112252a511.691093 511.691093 0 0 1 39.323944 97.944784 578.781706 578.781706 0 0 1 13.601704 59.622193c2.691135 6.529652 0.667568 13.768596 3.150088 20.31911s0.354646 13.309643 1.648059 19.881018c3.650764 17.878313 1.52289 36.194718 2.086151 54.239923a168.6653 168.6653 0 0 1-2.086151 31.146233c-1.084798 6.425345 0.208615 13.017582-1.585474 19.338619-1.960982 7.155498-0.959629 14.603056-3.191811 21.466493-4.443501 31.626048-13.330504 62.396773-23.844705 92.520793a472.680071 472.680071 0 0 1-22.029754 51.71568 194.700464 194.700464 0 0 1-9.867493 18.775359c-0.166892 0.625845-0.521538 1.856674-0.709292 2.378212-7.88565 12.934136-15.520963 26.014302-24.595719 38.1557-4.547809 5.987253-8.344604 12.892413-14.853394 17.002129-1.627198-1.37686-5.027624-2.378212-3.942825-5.090208 1.627198-4.610393 3.775933-8.99131 5.382269-13.601704 0.625845-1.79409 1.189106-3.567318 1.835813-5.340546q0.667568-2.086151 1.418582-3.963687c0.166892-0.563261 0.438092-1.710644 0.584123-2.273904a104.683052 104.683052 0 0 0 3.129226-10.535062c4.318332-12.85069 7.155498-26.222917 10.430754-39.282222 1.147383-6.133284 2.774581-12.16226 4.00541-18.25382 0-6.654821 1.960982-13.059305 2.691135-19.651542a130.739077 130.739077 0 0 1 2.524242-16.689207c0.667568-8.15685-0.375507-16.355423 0.500677-24.491411 1.481167-5.590884 0.897045-11.390384 1.001352-17.106438a54.406816 54.406816 0 0 0-0.876183-13.893765c-1.10566-7.46842 0-15.041148-0.563261-22.53043a106.58145 106.58145 0 0 1-2.378212-18.066066 481.525351 481.525351 0 0 0-18.358128-74.308695l-1.814951-2.670274c-1.919259-8.115127-6.008115-15.47924-8.803557-23.281444-0.938768-1.689782-1.79409-3.400426-2.649412-5.131931q-2.649412-5.152793-5.173654-10.430754-1.355998-2.565966-2.565966-5.173655a418.502732 418.502732 0 0 0-40.054097-63.001757 244.225686 244.225686 0 0 0-18.650189-22.488707c-5.215377-7.635312-13.121889-12.85069-18.420712-20.423417a83.967574 83.967574 0 0 0-11.181769-10.994015c-6.467068-4.777286-11.0566-11.432107-17.669698-15.938193a111.859411 111.859411 0 0 0-14.018935-11.765891c-20.068772-17.022991-42.015079-31.709494-64.044832-46.062212-7.384974-4.297471-15.020286-8.135989-22.029754-12.99672-1.814951-0.792737-3.567318-1.648059-5.340546-2.503381s-3.442149-1.710644-5.152793-2.607689c-8.469773-4.777286-17.14816-8.970449-25.951717-12.954997q-2.607689-1.272552-5.131931-2.607689a47.981471 47.981471 0 0 0-5.277962-2.378212q-2.62855-1.251691-5.131931-2.62855c-9.345956-4.631255-19.234311-8.052542-28.621991-12.934135s-19.21345-8.073404-28.62199-12.892413c-1.773228-0.83446-3.504734-1.710644-5.215377-2.607689s-3.442149-1.689782-5.131931-2.607688a111.087536 111.087536 0 0 1-10.430755-5.361408l-2.378212-0.68843c-7.280667-6.154145-15.792162-10.847985-22.196646-17.982621a91.999255 91.999255 0 0 1-16.981268-24.908641c-6.571375-11.515553-7.88565-24.929503-8.99131-37.842778 0-5.653469 1.710644-11.160907 1.502028-16.856099 4.172302-20.04791 13.455673-39.636867 28.621991-53.78097 11.223492-12.057952 26.827901-18.775358 42.30714-23.448336z" fill="#25A636" p-id="10638"></path><path d="M480.475761 293.429954a111.609073 111.609073 0 0 0 19.276034-2.774581c11.223492-0.375507 22.467845 0 33.691337-0.187753 6.988606-0.229477 13.706011 2.086151 20.652894 2.545104 5.361408 0.187754 10.305585 2.670273 15.687855 2.878888 11.578138 3.838518 23.510921 7.155498 34.296321 13.101028 6.696544 4.464363 13.497396 8.824418 20.089633 13.455673a162.15651 162.15651 0 0 1 36.403333 47.68941 279.544221 279.544221 0 0 1 13.580843 40.533912c0.292061 6.154145 3.024919 11.911922 2.816303 18.10779s2.378212 11.911922 2.545104 18.191236c0 8.198573-0.166892 16.397146 0 24.595719-0.292061 2.920611 1.668921 5.194516 3.150088 7.46842 5.7995 7.927373 9.867494 16.856099 14.707364 25.346733 10.430755 22.321815 20.173079 45.165167 25.555349 69.155903 1.960982 6.550514 0.792737 13.455673 1.189106 20.19394a13.518258 13.518258 0 0 1-7.885651 4.777286 50.338821 50.338821 0 0 1-34.442351-15.103732 60.915606 60.915606 0 0 0-7.155498-6.717406c-5.716053 4.297471-6.926021 11.703307-10.430754 17.56539-5.152793 11.348661-12.245706 21.633385-17.627975 32.877738 4.360055 5.277962 11.911922 5.507438 17.377637 9.053895 8.219435 4.047133 13.68515 11.619861 18.504158 19.088281a20.861509 20.861509 0 0 1-4.172302 16.564038c-8.15685 8.344604-19.672403 12.370875-30.812448 15.187179a174.235323 174.235323 0 0 1-33.002908 5.841222c-13.539119 2.378212-27.328577 0.709291-40.825973-1.043075a119.599031 119.599031 0 0 1-28.62199-6.675683c-10.806262-3.442149-21.779415-9.012172-33.378415-6.571375-10.847985 3.150088-20.861509 8.615803-32.064139 10.827123-7.88565 2.086151-16.021639 2.607689-24.011597 4.172302-8.031681 0.646707-16.146808 0-24.19935 0.312922-7.46842 0.354646-14.603056-2.649412-21.967169-2.77458a162.71977 162.71977 0 0 1-37.112625-10.681093c-6.258453-4.172302-13.038443-9.053895-15.103732-16.689207-2.378212-3.755072 0-7.781343 1.543751-11.286077 5.215377-10.806262 16.063362-17.878313 27.474608-20.715478 2.565966-0.521538 4.172302-2.795442 5.778638-4.610394a46.354273 46.354273 0 0 0-3.713349-9.220787c-6.508791-10.931431-12.516905-22.1132-18.045205-33.628752a24.366243 24.366243 0 0 0-4.485225-7.155498c-3.984548-1.147383-6.258453 2.670273-8.84528 4.944178-8.490634 8.219435-19.317757 15.458378-31.605186 15.187179-3.713349 0.208615-8.99131-0.229477-10.555923-4.172302-0.166892-6.467068 2.649412-12.516905 2.816303-19.06742a300.864683 300.864683 0 0 1 31.772079-83.696374c2.732858-4.777286 6.717406-8.887003 9.366817-13.810319 2.086151-3.567318 0.751014-7.614451 0.542399-11.432107-0.604984-6.946883 1.355998-13.726873 1.606337-20.652894 1.856674-7.155498-0.396369-14.79081 2.565965-21.695969a184.478324 184.478324 0 0 1 11.098323-41.723018c4.443501-13.059305 11.911922-24.783473 19.63068-36.090411 4.401778-5.361408 8.15685-11.494691 13.893765-15.604408 5.361408-4.172302 9.867494-9.304233 15.562686-12.99672 7.009467-5.048485 15.103733-8.15685 22.67646-12.224845 5.423992-3.04578 11.598999-4.297471 17.41936-6.404483 5.361408-2.378212 11.47383-2.086151 16.960407-4.172302h-0.229477z" fill="#0096D3" p-id="10639"></path><path d="M798.905835 704.547712c7.155498-2.378212 14.603056 0.68843 21.904584 0.333785 14.603056 2.941473 29.206113 8.344604 40.805112 18.274681 5.549161 3.525595 9.220787 9.116479 14.185826 13.330505a192.530867 192.530867 0 0 1 12.892412 18.775358 150.786987 150.786987 0 0 1 10.430755 29.72765c0.730153 6.738267 0 13.559981 0.354645 20.360833 0.83446 13.476535-4.172302 26.389809-8.99131 38.698099a102.033641 102.033641 0 0 1-8.344604 13.643427c-7.614451 9.199925-16.689207 16.939545-24.929503 25.659656-6.446206 8.135989-15.103733 14.081519-22.363537 21.466493-8.344604 6.738267-16.125946 14.310995-25.033811 20.402556-11.661584 9.304233-24.533135 16.939545-36.841425 25.346733-16.501454 8.970449-32.460508 19.088281-49.838145 26.222917a410.846559 410.846559 0 0 1-74.120942 27.119962c-19.088281 6.258453-38.948437 9.763186-58.683425 13.393089-6.446206 2.086151-13.351366 0.312923-19.797572 2.378212s-13.789457 0.876183-20.548586 2.378212c-7.280667 0.438092-14.603056 0.625845-21.800277 1.543751a472.325426 472.325426 0 0 1-55.491614-1.543751c-6.842575-1.52289-14.018934-0.166892-20.715478-2.378212s-13.664288 0.187754-19.943603-2.858027a527.003441 527.003441 0 0 1-166.015889-55.679368c-5.882946-4.172302-12.788105-6.77999-18.879666-10.639369a495.273086 495.273086 0 0 1-72.806666-52.821341c-6.467068-4.777286-11.432107-11.223492-17.607114-16.334562a91.51944 91.51944 0 0 1-16.689207-16.689207c-14.310995-13.893765-26.619286-29.644204-38.739822-45.311197a461.039349 461.039349 0 0 1-45.457228-73.703712c-2.89975-6.258453-6.613098-12.057952-8.699249-18.629327l-1.898398-2.086151a80.692317 80.692317 0 0 1-1.731505-8.69925l2.858027-3.88024c5.695192 2.378212 8.010819 8.469773 12.516905 12.350013 4.777286 6.926021 11.724168 11.682445 16.334562 18.629328 5.444854 5.695192 11.035738 11.286076 16.689207 16.689207 8.15685 6.091561 14.310995 14.310995 22.718183 20.173079 5.361408 3.671626 9.53371 8.928726 15.06201 12.203983a386.063086 386.063086 0 0 0 65.567723 42.140248c7.781343 5.423992 16.960407 7.989958 25.263287 12.350013 8.553219 3.73421 17.502806 6.571375 25.972579 10.430755 10.430755 1.731505 19.943603 7.155498 30.541249 8.344604 6.258453 2.086151 12.788105 3.004057 19.088281 4.777285 5.841223 0 11.223492 2.691135 17.043853 2.816304a149.827358 149.827358 0 0 1 15.333209 2.378212c5.215377 0.542399 10.535062-0.438092 15.687854 0.792737 4.777286 1.209968 9.53371 0.292061 14.310996 0.855322a90.872733 90.872733 0 0 0 23.344028 0.897045c6.258453-1.79409 12.975859-0.68843 19.442927-1.293414a44.226399 44.226399 0 0 1 12.704659-1.10566c7.510143 0.375507 14.603056-2.691135 22.154922-2.607688 5.361408 0.229477 10.055247-3.191811 15.47924-2.649412 11.369522-1.79409 22.446984-4.965039 33.545306-7.677035 15.687855-3.233534 30.68728-9.095618 45.89532-13.935488 9.53371-3.880241 19.317757-7.301528 28.621991-11.536415a408.134562 408.134562 0 0 0 60.665268-29.790235 266.902146 266.902146 0 0 0 23.239721-14.039795c8.344604-4.026271 15.437517-9.825771 23.135413-14.811672 6.842575-5.820361 14.769948-10.138693 21.946308-15.520962 6.696544-3.46301 11.911922-9.053895 18.337266-12.85069 12.391736-8.699249 24.658304-17.648837 36.987456-26.452393 6.717406-3.400426 12.746382-8.010819 19.672403-11.035739 11.035738-4.777286 22.697322-8.657526 34.83872-8.344603l0.292061-0.250338z" fill="#E40212" p-id="10640"></path></svg>