<?xml version="1.0" standalone="no"?><!DOCTYPE svg PUBLIC "-//W3C//DTD SVG 1.1//EN" "http://www.w3.org/Graphics/SVG/1.1/DTD/svg11.dtd"><svg t="1698656445302" class="icon" viewBox="0 0 1025 1024" version="1.1" xmlns="http://www.w3.org/2000/svg" p-id="42635" xmlns:xlink="http://www.w3.org/1999/xlink" width="64.0625" height="64"><path d="M513.91151 0C230.316626 0 0 228.405116 0 512s230.316626 512 513.91151 512a512 512 0 0 0 0-1024z" fill="#FFFDFF" p-id="42636"></path><path d="M852.858845 558.974343c-5.002462 4.067043-9.476209 7.64604-13.827945 11.265708-4.067043-5.083803-10.330288-9.720232-12.201128-15.536103-5.571848-18.423703 1.708158-33.715784 17.732306-43.314004a39.694336 39.694336 0 0 0 14.682024-13.949957c3.863691-7.157995 4.717769-15.902137 6.913973-23.914211-7.035984 0-14.071968-0.244023-21.107952-0.488045-1.098102 0-2.196203-1.057431-5.69386-2.8876 4.717769-5.205815 9.191516-9.598221 13.217889-14.438001 5.449837-6.66995 12.201128-12.851855 15.414092-20.619907 2.399555-5.937882 2.277544-17.976329-0.976091-19.928509-7.524029-4.473747-17.732306-5.327826-26.923822-5.815871-5.246485-0.244023-10.696322 3.294305-16.268171 5.246485-1.220113-1.830169-2.440226-3.660338-3.538327-5.612518 3.78235-2.8876 7.157995-7.64604 11.42839-8.378108 19.155771-3.253634 16.471523-17.569624 16.268171-30.543491 0-14.193979-8.947494-13.217889-19.521805-12.201128-4.717769 0.488045-9.923584-4.067043-18.789737-8.134085 22.450075-8.62213 32.536341-25.378346 27.167845-37.498133-5.69386-12.892525-23.7922-15.658114-40.670427-6.66995-11.225038 6.507268-23.426166 11.672412-34.935896 17.894987a132.138216 132.138216 0 0 0-15.495433 10.940345c0.732068 2.033521 1.423465 4.067043 2.277544 6.059894 5.978553 0.366034 12.201128 0.610056 17.976329 1.342124 5.327826 0.610056 10.53364 1.91151 15.780125 3.009611-1.342124 6.425927-1.342124 13.827945-4.636428 19.196442s-10.289618 6.791961-14.193979 11.265708-8.134085 10.818333-8.134085 16.268171c0 17.325602 12.201128 17.20359 25.256334 13.705933 5.571848 12.973866 2.196203 17.935658-10.818333 19.399794-7.157995 0.854079-16.959568 3.660338-20.131861 8.988164-9.232187 15.29208-2.521566 32.007626 14.31599 42.459925l15.048058-12.729843 5.083803 2.155532c-2.643578 7.890063-3.497657 17.000238-8.134085 23.426166a146.901581 146.901581 0 0 1-25.012312 25.500358c-14.071968 11.875765-8.744142 22.938121 0.244022 34.081817 9.720232 12.201128 19.03376 8.988164 28.469299-0.610056a54.37636 54.37636 0 0 1 8.744141-5.69386 102.367464 102.367464 0 0 1 2.074192 10.411629c3.497657 60.07022 6.791961 120.14044 10.411629 180.047979 0.488045 8.378108-1.220113 19.196441 12.851855 17.732306 12.526491-1.342124 20.98594-5.083803 19.806498-20.985941-2.074192-26.191755-2.318214-52.668202-2.80626-78.981968-0.488045-23.426166 0-46.73032 0-73.898165a149.301136 149.301136 0 0 0 10.045596 21.311303c6.66995 9.598221 12.607832 20.741918 21.840019 26.923823 17.325602 11.672412 32.007626 3.050282 33.837795-17.691636 2.318214-25.012312-10.696322-39.08428-43.069982-48.153785zM376.770832 618.190484c-0.366034-5.083803-14.31599-9.801573-22.572087-13.583923-3.538327-1.586147-8.134085-0.610056-12.973866-0.854079 27.899913-44.371435 27.899913-44.371435 21.595996-61.98173-5.124474 0.244023-10.4523 0.610056-14.071967 0.732068 0-15.29208-0.366034-29.608071 0.244022-43.924061 0-3.660338 3.619668-7.157995 4.473747-10.940345 1.586147-6.66995 4.839781-14.682024 2.684248-20.009849a18.545715 18.545715 0 0 0-16.26817-8.134086 113.877194 113.877194 0 0 0-31.43824 14.31599 316.741282 316.741282 0 0 0-28.469299 22.572087l-8.134085-6.913972c4.75844-6.547939 8.134085-15.048058 14.438002-19.399794 26.72047-18.708396 54.864405-35.30193 81.340853-54.620383 5.69386-4.067043 5.571848-16.268171 8.134085-24.402256-7.157995-0.854079-14.682024-3.538327-21.229963-1.95218-8.825483 1.708158-16.959568 7.035984-25.459687 11.184367-4.473747-18.830407-1.91151-30.584161 20.335214-30.828183a25.947732 25.947732 0 0 0 18.667725-10.4523c3.741679-5.937882 3.416316-15.170069 2.80626-22.816109 0-1.91151-8.134085-4.717769-12.526492-4.71777-25.70371-0.366034-25.337676 0-21.473985-25.947732 1.708158-11.184367 6.791961-23.548177-6.181905-32.170307-26.069743 20.619906-26.069743 20.619906-23.91421 32.170307 5.978553 31.031535 1.708158 36.603384-29.079355 39.165621-1.464135 0-2.928271 1.708158-4.067043 2.562237 6.303916 21.96203 6.303916 21.840019 29.120025 28.021924 2.562237 0.732068 6.303916 3.416316 6.547939 5.449837 1.830169 14.560013 7.524029 29.486059-6.425927 42.093892-25.70371 23.304154-52.302169 43.680038-90.125666 38.352212-5.124474-0.732068-10.574311 0.97609-20.05052 2.074192 6.913973 10.899674 11.794424 25.825721 17.244261 26.069743 17.244261 0.610056 34.691874-4.067043 53.278259-7.157995 0 5.327826 0.325363 12.201128 0 18.830407-0.732068 11.753753-4.067043 23.629518-2.318215 35.057908 3.131623 22.328064 8.866153 44.290095 13.3399 66.374136 3.050282 14.885376 8.134085 16.715545 19.765828 7.280007 2.440226-1.95218 5.246485-3.538327 7.768051-5.368497 1.586147 1.830169 3.050282 3.78235 4.636429 5.612519-5.368496 4.473747-10.086266 11.875765-16.024148 13.095878-35.789975 7.035984-46.364286 22.328064-35.179919 57.629994 2.521566 8.134085 11.265708 19.643816 17.569624 20.00985a59.500834 59.500834 0 0 0 33.512431-10.574311c19.03376-12.485821 35.179919-29.608071 54.823735-40.670427a31.072206 31.072206 0 0 0 16.268171-31.316228zM289.166733 536.280245c-0.732068-19.928509 9.964255-32.536341 30.096116-34.000477-11.306379 12.770514-20.05052 22.572087-30.096116 34.000477z" p-id="42637"></path><path d="M724.258956 417.969974c0.488045-5.69386 8.134085-10.53364 10.533641-16.756216 4.75844-11.387719 10.208277-23.385495 10.696322-35.30193 0-3.497657-15.536103-9.801573-24.402256-10.655652-7.035984-0.732068-14.804035 4.473747-22.084042 7.64604a150.846612 150.846612 0 0 0-21.351974 10.533641c-4.351736 2.806259-10.777663 7.524029-10.655651 11.184367 0.244023 4.473747 5.69386 9.313528 9.801572 12.973866s12.729844 6.181905 12.201128 7.280006c-1.667487 6.059894-4.067043 14.193979-8.825482 16.756216-17.488283 9.069505-13.014537 22.287394-3.050282 29.811423 16.634204 12.526491 11.997776 23.182143 0.732068 33.39042-19.03376 17.20359-13.217889 35.30193-5.205815 55.189769l19.765827-3.253634c-4.351736 15.739455-8.134085 29.242037-12.973866 46.933672 2.277544 7.157995 5.937882 19.765827 10.777663 31.926285a71.213917 71.213917 0 0 0 9.842243 13.827945c3.497657-4.636429 9.232187-8.866153 10.086266-13.827945 3.009612-19.196441 4.473747-38.596235 6.66995-57.874017 2.765589-24.890301 4.717769-49.861943 9.069505-74.38621 3.294305-17.732306 9.964255-34.935896 15.048058-52.302169-8.866153-4.351736-17.000238-9.069505-16.674875-13.095877z m-116.480101 199.000397a89.474938 89.474938 0 0 1-6.425928-69.139725c13.705934-44.290095-14.926047-69.993804-38.10819-105.539757-2.318214 11.509731-3.294305 17.569624-4.83978 23.507506-5.856541 22.206053 5.083803 41.158472 10.411629 61.534356a436.108984 436.108984 0 0 1 13.461911 147.308285c-0.610056 7.402018 4.392406 15.373421 6.791961 23.019461 8.134085-4.067043 17.732306-6.303916 23.7922-12.201128 6.913973-6.791961 11.062356-16.634204 15.414092-25.581698a426.795456 426.795456 0 0 0 18.667725-42.703948c7.402018-20.335213 13.827945-41.524506 20.335214-62.510446 0.93542-3.253634-0.854079-7.280006-1.83017-14.193978-21.392644 25.907062-28.794662 58.15871-57.670664 76.501072zM194.770673 622.257526c-19.643816-29.364048-17.732306-55.677814-14.804035-81.666216 1.586147-14.560013 0.488045-26.191755-12.729844-36.603384-16.268171-12.729844-17.12225-28.469299-5.937882-46.445627a144.9494 144.9494 0 0 0 6.059893-13.502582c-12.851855 1.586147-23.182143 2.806259-37.620144 4.514418 4.067043 21.229963 7.64604 41.97188 12.201128 62.591786 3.416316 15.780126 10.330288 31.194217 11.42839 47.096354 2.521566 35.545953 2.765589 71.335928 3.497656 107.003892 0.244023 11.875765 1.098102 25.581698 14.560013 26.557789 7.524029 0.488045 19.07443-8.378108 23.182143-16.268171a661.585829 661.585829 0 0 0 33.715784-75.443641c6.425927-17.244261 9.110176-35.911987 13.461911-54.010327l-4.473747-1.098101z m238.166018-47.462387a20.335213 20.335213 0 0 0-16.756216 0.97609c-2.521566 1.708158-2.521566 11.794424 0 15.414092 9.720232 13.705934 7.402018 26.435777-1.545476 38.108189-12.770514 16.634204-26.72047 32.129637-43.924061 52.668203 16.837557-5.368496 30.665502-8.866153 43.680038-14.23465a414.309635 414.309635 0 0 0 43.191993-21.473985 17.569624 17.569624 0 0 0 8.134086-12.729843c-1.545476-24.402256-7.524029-47.543729-32.861705-58.728096z m-259.029947-167.358806c-1.830169 2.033521-3.78235 7.035984-2.928271 7.727381a22.328064 22.328064 0 0 0 10.696322 5.978553c12.729844 2.155533 25.70371 3.375645 38.433554 5.327826 15.658114 2.440226 23.7922-5.205815 21.96203-21.351974-2.277544-21.229963-24.849631-44.737469-46.323616-45.266185-8.500119-0.244023-17.244261 4.514417-28.876003 7.890063 23.548177 20.863929 23.426166 20.741918 7.035984 39.694336z" p-id="42638"></path><path d="M657.030741 428.666296c3.497657 0 11.143697-12.526491 9.720232-14.682024-9.842243-15.29208-19.318453-32.292319-33.512431-42.581937-8.134085-5.856541-24.402256 0.244023-39.653666 0.93542 17.20359 32.536341 17.20359 32.536341-2.318215 53.278259 21.96203 1.220113 43.924061 3.294305 65.76408 3.050282z m-252.726031 135.513861c13.827945-9.964255 27.167845-20.741918 40.141711-31.926285 4.067043-3.253634 8.866153-9.069505 8.378108-13.095877-2.399555-19.155771-9.923584-36.603384-27.289856-46.933672a16.268171 16.268171 0 0 0-13.949956-1.098102c-2.806259 1.586147-2.928271 8.134085-3.660339 12.851855-2.155533 15.048058-2.399555 30.584161-6.66995 44.737469s-12.485821 26.801811-19.033759 40.141711l2.196203 4.067043a96.876956 96.876956 0 0 0 19.887838-8.744142z m-6.059893-146.413535c17.691636 1.586147 27.411868-4.067043 32.536341-16.024148a268.709508 268.709508 0 0 0 14.560013-40.670427c1.464135-5.815871-1.91151-12.973866-3.009612-19.399793-12.770514 3.253634-25.622369 6.181905-37.986178 10.655651-1.220113 0.488045-0.610056 12.973866 2.684248 16.756216 8.134085 9.354198 7.727381 17.569624 1.91151 27.289856-3.294305 5.69386-5.978553 11.875765-10.696322 21.229963z" p-id="42639"></path></svg>