<?xml version="1.0" standalone="no"?><!DOCTYPE svg PUBLIC "-//W3C//DTD SVG 1.1//EN" "http://www.w3.org/Graphics/SVG/1.1/DTD/svg11.dtd"><svg t="1698655762448" class="icon" viewBox="0 0 1024 1024" version="1.1" xmlns="http://www.w3.org/2000/svg" p-id="6254" xmlns:xlink="http://www.w3.org/1999/xlink" width="64" height="64"><path d="M57.85024976 48.2477218m147.47298164 0l623.40851322 0q147.47298163 0 147.47298164 147.47298162l0 623.40851323q0 147.47298163-147.47298164 147.47298164l-623.40851322 0q-147.47298163 0-147.47298164-147.47298164l0-623.40851323q0-147.47298163 147.47298164-147.47298162Z" fill="#FFFFFF" p-id="6255"></path><path d="M976.20472626 219.65154635L57.85024976 267.78136489v532.91372907l918.3544765-48.12981854v-532.91372907z" fill="#FE2F48" p-id="6256"></path><path d="M185.21327935 353.48327718v56.97819743l127.3630296 8.37914672v-56.97819747l-127.3630296-8.37914668zM185.21327935 445.6538907v56.97819742l127.3630296 8.37914669v-56.97819743l-127.3630296-8.37914668zM155.04835129 554.58279758v53.62653876l351.9241607-16.75829337v-53.62653876l-351.9241607 16.75829337zM525.40663469 537.82450421v53.62653876l351.92416068-16.75829336v-53.62653877l-351.92416068 16.75829337z" fill="#FFFFFF" p-id="6257"></path><path d="M349.44455435 333.37332513s11.73080535 196.07203239-36.8682454 242.99525381c0 0-33.51658673 51.95070943-139.09383494 135.74217626h85.46729613s98.87393088-77.08814949 124.01137095-144.12132294 25.13744005-234.61610714 25.13744005-234.61610713zM384.63697042 621.61597102l51.95070944 80.43980817h70.38483213l-51.95070945-80.43980817h-70.38483212zM756.67108315 599.83018967l51.95070945 80.43980815h70.38483214l-51.95070944-80.43980815h-70.38483215zM652.76966429 611.56099501l-51.95070944 80.43980816h-70.38483215l51.95070944-80.43980816h70.38483215zM781.8085232 438.95057335s70.38483214-46.92322144 75.41232015-60.32985612v-55.30236813l-214.5061551 10.05497603-53.62653876-25.13744005-51.95070944 83.79146683 87.14312551 53.62653879s-75.41232014 23.46161072-93.84644286 23.4616107v53.62653877s135.74217627-21.78578138 169.25876301-50.2748801c0 0 113.95639489 30.16492806 177.63790966 31.84075741v-50.2748801s-87.14312551-10.05497602-95.52227217-15.08246403z m-78.76397882-20.10995202c-13.40663469 0-82.11563749-33.51658673-82.1156375-33.51658676v-6.70331734l160.87961632-5.02748801v3.35165867c-18.4341227 21.78578138-78.76397882 41.89573343-78.76397882 41.89573344z" fill="#FFFFFF" p-id="6258"></path><path d="M672.87961633 504.30791748h60.32985611v187.69288569h-60.32985611z" fill="#FFFFFF" p-id="6259"></path></svg>