<?xml version="1.0" standalone="no"?><!DOCTYPE svg PUBLIC "-//W3C//DTD SVG 1.1//EN" "http://www.w3.org/Graphics/SVG/1.1/DTD/svg11.dtd"><svg t="1714455690574" class="icon" viewBox="0 0 1024 1024" version="1.1" xmlns="http://www.w3.org/2000/svg" p-id="1583" xmlns:xlink="http://www.w3.org/1999/xlink" width="512" height="512"><path d="M204.078 0h615.845q202.07 0 202.07 202.07v615.845q0 202.07-202.07 202.07H204.077q-202.07 0-202.07-202.07V202.069Q2.008 0 204.078 0z" fill="#4496D3" p-id="1584"></path><path d="M616.087 869.276a106.657 106.657 0 0 0-102.641 77.663 106.657 106.657 0 0 0-102.641-77.663H7.63A202.11 202.11 0 0 0 204.077 1024h615.846a202.11 202.11 0 0 0 196.447-154.724z m255.437-128.14c-44.654 44.172-99.026 54.934-157.816 35.217-19.356-6.506-35.258-8.032-52.204 3.212a73.326 73.326 0 0 1-11.324 3.775c15.46-26.865 4.015-43.65-9.036-62.685-28.993-42.285-23.09-96.738 11.405-136.051 56.22-64.251 166.731-64.251 223.112 0 40.96 46.662 40.076 112.64-4.137 156.531z" fill="#FFFFFF" p-id="1585"></path><path d="M818.96 611.187a20.078 20.078 0 0 0-20.883 19.276 19.516 19.516 0 0 0 18.473 21.444 20.078 20.078 0 0 0 22.006-18.03 20.68 20.68 0 0 0-19.597-22.69z m-108.906 0a20.078 20.078 0 0 0-20.079 22.207 19.556 19.556 0 0 0 21.404 18.472 20.078 20.078 0 0 0 19.275-20.921 20.922 20.922 0 0 0-20.6-19.758z" fill="#4496D3" p-id="1586"></path></svg>