<?xml version="1.0" standalone="no"?><!DOCTYPE svg PUBLIC "-//W3C//DTD SVG 1.1//EN" "http://www.w3.org/Graphics/SVG/1.1/DTD/svg11.dtd"><svg t="1698655799257" class="icon" viewBox="0 0 1024 1024" version="1.1" xmlns="http://www.w3.org/2000/svg" p-id="7297" xmlns:xlink="http://www.w3.org/1999/xlink" width="64" height="64"><path d="M851.665455 1021.998545H170.333091A170.356364 170.356364 0 0 1 0 851.665455V170.333091A170.356364 170.356364 0 0 1 170.356364 0h681.309091a170.333091 170.333091 0 0 1 170.356363 170.356364v681.309091a170.333091 170.333091 0 0 1-170.356363 170.356363z" fill="#0D84FD" p-id="7298"></path><path d="M540.765091 487.191273h-101.748364c11.706182-19.712 4.631273-137.751273 4.631273-137.751273h93.812364c10.984727-30.208-10.356364-42.123636-10.356364-42.123636h-173.149091l27.112727-74.472728c-66.513455-3.095273-74.309818 66.56-74.309818 66.56l-45.381818 116.619637c70.4 4.491636 77.474909-67.397818 77.474909-67.397818h51.595636v137.751272h-108.683636c-19.549091 18.176-19.549091 46.149818-19.549091 46.149818h125.207273C372.503273 668.043636 256 762.577455 256 762.577455c118.946909 39.330909 159.581091-148.363636 159.581091-148.363637l107.124364 118.039273c21.969455-25.018182 1.582545-66.56 1.582545-66.56l-78.941091-84.526546-22.690909 21.131637c11.706182-20.433455 10.984727-71.912727 10.984727-71.912727h117.364364c10.868364-42.356364-10.24-43.194182-10.24-43.194182z m41.472-186.973091v403.479273l42.216727 2.234181 15.616 47.685819 74.309818-49.92H814.545455V300.218182h-232.308364z m183.016727 360.378182h-53.922909l-53.201454 34.816-7.07491-37.050182H626.036364V344.971636h139.217454v315.624728z" fill="#FFFFFF" p-id="7299"></path></svg>