<?xml version="1.0" standalone="no"?><!DOCTYPE svg PUBLIC "-//W3C//DTD SVG 1.1//EN" "http://www.w3.org/Graphics/SVG/1.1/DTD/svg11.dtd"><svg t="1698655888143" class="icon" viewBox="0 0 1024 1024" version="1.1" xmlns="http://www.w3.org/2000/svg" p-id="9515" xmlns:xlink="http://www.w3.org/1999/xlink" width="64" height="64"><path d="M512 512m-512 0a512 512 0 1 0 1024 0 512 512 0 1 0-1024 0Z" fill="#F4F5FF" p-id="9516"></path><path d="M389.290667 422.058667c41.642667-8.96 36.010667-58.794667 34.730666-69.632-2.048-17.066667-21.76-46.165333-48.554666-43.776-34.133333 2.986667-38.656 51.712-38.656 51.712-4.608 22.528 10.922667 70.656 52.48 61.696z m44.288 86.613333a34.133333 34.133333 0 0 0-1.621334 20.394667 23.04 23.04 0 0 0 19.797334 18.346666h21.845333v-53.504h-23.381333a25.6 25.6 0 0 0-16.64 14.762667z m33.024-170.154667c23.04 0 41.642667-26.453333 41.642666-59.221333s-18.602667-59.221333-41.642666-59.221333-41.557333 26.453333-41.557334 59.221333 18.602667 59.221333 41.557334 59.221333z m99.157333 3.925334c30.805333 4.010667 50.602667-28.842667 54.528-53.674667s-15.872-53.76-37.632-58.709333-49.066667 29.952-51.2 52.736c-2.986667 27.818667 3.925333 55.722667 34.645333 59.733333z m75.434667 146.261333a422.912 422.912 0 0 1-75.434667-76.8c-37.632-58.624-91.136-34.816-109.056-4.949333s-45.568 48.725333-49.493333 53.76S349.866667 494.933333 361.557333 547.413333s53.589333 51.712 53.589334 51.712a235.52 235.52 0 0 0 66.389333-4.949333 139.776 139.776 0 0 1 66.389333 1.962667s83.285333 27.904 106.154667-25.6-12.885333-81.578667-12.885333-81.578667z m-142.592 79.957333h-54.186667a47.616 47.616 0 0 1-34.133333-23.381333 60.672 60.672 0 0 1-4.266667-37.376 47.530667 47.530667 0 0 1 38.912-35.072h28.842667v-35.413333h24.576v131.242666z m100.864 0H537.6c-24.149333-6.229333-25.6-23.381333-25.6-23.381333v-69.290667l25.6-0.426666V537.6c1.536 6.570667 9.728 7.765333 9.728 7.765333h25.6v-69.376h26.88zM687.701333 384c0-11.946667-9.898667-47.786667-46.506666-47.786667s-41.642667 34.133333-41.642667 57.770667 1.877333 54.698667 47.530667 53.674667 40.618667-51.712 40.618666-63.658667zM345.173333 803.925333V787.626667a61.184 61.184 0 0 0 31.146667-59.733334V674.133333h18.346667v53.674667c-1.365333 26.88 7.509333 46.421333 26.88 58.709333v14.848a74.24 74.24 0 0 1-36.096-28.330666 73.472 73.472 0 0 1-40.277334 30.890666z m4.693334-48.810666V647.765333h70.741333v107.349334h-18.176v-90.453334h-34.133333v90.453334z m76.8 43.861333v-82.688h22.613333v-75.605333h25.6v28.928h34.133333v17.066666h-34.133333v29.696h29.013333v57.941334c0 17.066667-7.594667 25.6-24.064 24.746666z m25.6-15.530667h18.346666a8.533333 8.533333 0 0 0 9.898667-10.666666v-39.509334H452.266667zM530.346667 786.261333V651.264h51.626666v113.749333c0.938667 14.677333-6.4 21.674667-21.930666 21.248z m19.797333-15.530666h5.632c4.778667 0.426667 6.826667-2.133333 6.4-7.850667V668.245333h-12.032z m65.706667 27.562666c-17.066667 0-25.6-7.082667-24.746667-22.613333v-128h90.538667v62.890667c0.426667 17.92-8.021333 26.624-25.6 26.112h-42.666667v36.010666c0 7.082667 2.645333 10.410667 9.216 9.898667h36.778667c6.058667 0.512 8.533333-2.304 8.533333-8.533333v-7.765334h19.797333V776.533333c0 15.018667-7.082667 22.357333-22.613333 21.930667z m-2.133334-133.632v54.442667h12.8v-54.442667z m45.994667 0h-12.714667v54.442667h4.181334c6.144 0.512 8.533333-2.816 8.533333-9.898667z" fill="#3245DF" p-id="9517"></path></svg>