<?xml version="1.0" standalone="no"?><!DOCTYPE svg PUBLIC "-//W3C//DTD SVG 1.1//EN" "http://www.w3.org/Graphics/SVG/1.1/DTD/svg11.dtd"><svg t="1715650816913" class="icon" viewBox="0 0 1024 1024" version="1.1" xmlns="http://www.w3.org/2000/svg" p-id="1633" xmlns:xlink="http://www.w3.org/1999/xlink" width="64" height="64"><path d="M750.35136 541.056h-149.52448v214.46656h115.52256c35.456 0 34.00192-41.12384 34.00192-41.12384v-173.34272z" fill="#2482FD" p-id="1634"></path><path d="M849.92 51.2H174.08c-67.8656 0-122.88 55.0144-122.88 122.88v675.84c0 67.8656 55.0144 122.88 122.88 122.88h675.84c67.8656 0 122.88-55.0144 122.88-122.88V174.08c0-67.8656-55.0144-122.88-122.88-122.88zM491.2128 819.2c-97.59744 0-141.59872-73.25184-141.59872-73.25184-51.85024 80.44032-141.5936 73.07264-141.5936 73.07264v-63.50336c108.72832 0 108.77952-107.22816 108.77952-107.22816V317.4656h65.62304v330.82368c0 102.90688 108.78464 107.22816 108.78464 107.22816V819.2z m0-608.58368v447.73376H425.58976V273.38752h-111.1552c-41.52832 0-40.7808 33.13664-40.7808 33.13664v351.81568H208.0256V306.52928c0-98.08384 106.40384-96.64 106.40384-96.64H491.2128v0.72704z m324.7616 503.77728c0 103.91552-99.62496 104.63232-99.62496 104.63232H535.20384V477.55776h60.5184V204.8h65.62304v67.85536h154.53184v67.7376h-154.53184v137.15968h154.62912v236.84096z" fill="#2482FD" p-id="1635"></path></svg>