<?xml version="1.0" standalone="no"?><!DOCTYPE svg PUBLIC "-//W3C//DTD SVG 1.1//EN" "http://www.w3.org/Graphics/SVG/1.1/DTD/svg11.dtd"><svg t="1768381815342" class="icon" viewBox="0 0 1024 1024" version="1.1" xmlns="http://www.w3.org/2000/svg" p-id="7329" xmlns:xlink="http://www.w3.org/1999/xlink" width="128" height="128"><path d="M955.904 0H68.096C30.72 0 0 30.72 0 68.096v887.296C0 993.28 30.72 1024 68.096 1024h887.296c37.888 0 68.096-30.72 68.096-68.096V68.096C1024 30.72 993.28 0 955.904 0zM691.2 244.224l75.264-8.704v61.44H742.4l24.064 39.424h-27.136l-22.016-42.496v42.496h-30.72l4.608-92.16zM609.28 312.32h27.136l5.12-40.96h-10.24v-22.016h37.376l-5.12 83.456-54.272 3.584V312.32z m-395.776 474.624l-66.56-16.896c25.6-109.568 41.472-220.672 47.616-332.8h-22.016l-15.36-97.28L317.44 321.024V206.336l70.144-5.12v32.256l87.04-6.656V281.6l-87.04 6.656V312.32l162.304-18.944-5.12 136.704L486.4 441.856V373.76l-98.816 15.36v29.184L457.216 404.48v66.56l-70.144 18.944v27.136l75.264-15.36 5.12 68.096-150.016 35.84v-97.28L259.584 522.24c-7.68 89.6-23.04 178.176-46.08 264.704z m105.472-355.328l-49.664 10.24V414.72l49.664-8.704v25.6z m375.808 153.6l10.24 65.024-57.856 32.256-5.12 117.76H563.2l5.12-75.264L411.136 819.2l-8.704-136.704-57.856 18.944c1.536 64-7.168 98.304-11.776 107.52l-62.976-13.824c9.216-50.176 12.8-100.864 10.24-152.064l185.856-47.616 8.704 87.04 105.984-46.08 8.704-92.16-95.744 20.48V496.64l100.864-24.064 11.776-121.344h52.736v105.984l35.84-6.656 10.24 62.976-52.736 13.824v76.8l42.496-18.944z m138.24 58.368l-40.96-40.96v184.32H716.8l18.944-436.736h56.32v165.376l88.576 87.04-47.616 40.96z m-92.16-380.928h-30.72V276.48h30.72v-13.824z" fill="#C01D2F" p-id="7330"></path></svg>