<?xml version="1.0" standalone="no"?><!DOCTYPE svg PUBLIC "-//W3C//DTD SVG 1.1//EN" "http://www.w3.org/Graphics/SVG/1.1/DTD/svg11.dtd"><svg t="1698655964017" class="icon" viewBox="0 0 1024 1024" version="1.1" xmlns="http://www.w3.org/2000/svg" p-id="15322" xmlns:xlink="http://www.w3.org/1999/xlink" width="64" height="64"><path d="M512.010445 0.000585A512.281535 512.281535 0 0 0 1.016196 479.339287c-19.250785 305.964609 237.679908 562.895302 543.644517 543.644517A511.98897 511.98897 0 0 0 512.010445 0.000585z" fill="#2180FF" p-id="15323"></path><path d="M481.700698 269.160501l21.064689-15.798517a75.189237 75.189237 0 0 1 8.89398-6.846024 118.547389 118.547389 0 0 1 13.692048 10.005728l21.591306 16.851751a20.88915 20.88915 0 0 0 5.851303 4.212938A52.661723 52.661723 0 0 0 563.794472 286.714408q6.319407 5.266172 10.532345 8.425876a18.548629 18.548629 0 0 1 3.68632 4.212938q0 0.526617-2.106468 2.106469-0.526617 0.526617-8.952493 6.846024t-20.011455 15.740004q-11.702605 10.005727-20.538072 16.851751t-11.058962 8.425875l-3.68632 2.633087-24.16588-19.484838a167.69833 167.69833 0 0 1-17.553907-13.633535q-7.372641-5.851303-8.425876-6.319406l-2.457547-2.399034q-2.633086-2.106469-6.319406-4.739555l-7.372642-5.851303 4.212938-3.686321A70.80076 70.80076 0 0 1 460.636009 286.714408zM643.664752 394.144323q11.058962-7.899258 18.95822-14.218665a36.453615 36.453615 0 0 1 8.425875-5.851303q3.042677 2.633086 21.006177 16.851751c11.702605 9.47911 18.431603 14.862308 20.538071 16.266621q0 1.053234-5.851302 5.851303l-13.692048 11.058962q-8.425876 6.319407-20.011455 15.798516-12.521787 10.005727-22.586027 17.553908-10.005727 8.425876-21.064689 16.851751c-7.372641 5.851303-13.516509 10.707884-18.431603 14.160152L600.072548 497.361299q-4.739555 3.686321-5.266172 4.212938c-1.755391 1.404313-8.89398 7.021563-21.532794 16.851751s-23.40521 18.95822-35.107815 28.43733l-4.739555 3.159704q-3.686321 3.159703-7.899258 6.319407l-11.234501 8.308849a3.10119 3.10119 0 0 1-2.633086 1.579852q-0.526617 0.526617-2.106469-1.053235c-1.3458-0.702156-7.840745-5.851303-19.426324-15.271899s-26.5064-20.362533-43.70923-33.703503q-47.805142-37.91644-64.364328-51.023358l-24.224392-19.484837q-4.212938-3.159703-10.005728-7.899258c-3.803347-3.159703-7.489667-5.851303-11.000448-8.952493a46.166777 46.166777 0 0 1-8.952493-6.846024 16.032569 16.032569 0 0 1-4.739555-3.686321 31.889599 31.889599 0 0 0-2.633086-2.106469 16.500673 16.500673 0 0 0-4.212938-3.159703q-7.899258-6.319407-4.739555-6.319407a1.521339 1.521339 0 0 0 1.053234-0.526617l3.159704-2.047956a5.090633 5.090633 0 0 1 2.633086-2.106469l2.106469-2.106469a64.890945 64.890945 0 0 0 6.319406-4.739555L336.997987 386.186551c4.212938-3.510782 7.899258-6.319407 11.000448-8.425875a53.831983 53.831983 0 0 1 5.266173-3.686321 11.702605 11.702605 0 0 1 3.159703 1.579852l4.739555 4.739555q18.431603 13.692048 40.549527 31.011903t30.485286 24.224393a15.447439 15.447439 0 0 0 4.212938 3.68632l5.266172 4.212938a57.459791 57.459791 0 0 0 4.739555 4.212938q3.159703 2.106469 4.212938 2.633086a60.443955 60.443955 0 0 0 5.851302 4.739555A86.131173 86.131173 0 0 0 465.375564 462.253484q26.857479 21.064689 35.107815 27.8522a81.508644 81.508644 0 0 0 8.89398 6.846024c-1.3458 3.159703 4.915094-0.526617 18.95822-11.000449S580.295145 444.699576 643.664752 394.144323zM200.136021 496.717656l14.218665-11.702605a33.46945 33.46945 0 0 1 5.851302-4.212938q0-1.053234 7.372642 4.739555t32.12365 25.745731q6.787511 4.739555 23.405211 17.904986t35.107815 27.910713l65.76864 51.549975q18.431603 15.2719 20.538072 16.851751a58.513025 58.513025 0 0 1 8.952493 7.372641c5.266172 3.86186 11.058962 8.250337 17.553907 13.165431l16.851751 13.106918 7.372642 6.319406q1.053234 0.526617 4.212937 2.633087l6.846024 5.851302a36.921719 36.921719 0 0 0 7.372642 5.266172q2.633086 3.159703 3.159703 3.159704l1.579852 1.053234a17.553908 17.553908 0 0 0 2.633086 2.106469l3.68632 2.633086a8.250337 8.250337 0 0 0 2.106469 1.579852 8.601415 8.601415 0 0 0 3.159704 2.633086l8.425875 6.319407a57.459791 57.459791 0 0 1 4.739555 4.212938q1.579852 1.579852 2.106469 1.579851t1.579852 1.053235a3.452268 3.452268 0 0 0 2.047956 1.579851l2.633086 2.106469 7.372641-5.266172a64.364328 64.364328 0 0 1 9.47911-7.372641 136.74494 136.74494 0 0 1 11.058962-8.952493q5.266172-4.212938 15.798517-12.112196t20.011454-16.325134c7.021563-5.266172 14.394204-11.000449 22.059411-17.553908s14.569743-11.058962 19.484837-15.271899 9.303571-7.197102 13.165431-10.005728a20.479559 20.479559 0 0 0 6.319407-5.851302q1.053234-0.526617 9.47911-7.372641t20.011454-16.325134l20.479559-15.2719c5.851303-4.505503 9.128032-6.96305 9.47911-7.314128l2.633086-2.633086a22.23495 22.23495 0 0 0 5.851303-4.212938q7.372641-5.851303 9.47911-7.899258a14.043126 14.043126 0 0 1 4.739555-3.159704 44.820977 44.820977 0 0 1 5.266172-4.212938l6.846024-5.851302a73.726412 73.726412 0 0 0 6.846024-4.739555q2.633086-2.106469 2.633086-2.633086a10.06424 10.06424 0 0 0 4.212938-2.633086l8.425876-7.372642a57.459791 57.459791 0 0 0 8.367362-6.846024q4.212938-2.633086 5.266172-3.159703a37.389823 37.389823 0 0 1 6.319407-5.851302 117.435642 117.435642 0 0 1 12.638814-9.479111c7.372641-5.851303 12.463274-9.947214 15.271899-12.053683s4.739555-1.579852 4.739555-0.526617 0.702156 1.053234 2.106469 2.106469a14.979334 14.979334 0 0 1 3.159703 2.633086 110.82367 110.82367 0 0 1 12.112197 9.947214 97.716752 97.716752 0 0 1 9.011006 7.548181q0 0.526617 2.106468 1.579851a60.853546 60.853546 0 0 1 5.20766 4.739555l7.372641 5.266173-3.159703 1.579851q-0.526617 1.579852-4.212938 3.159704a28.378817 28.378817 0 0 1-5.851303 5.266172 46.81042 46.81042 0 0 0-5.851302 4.739555l-2.633086 2.106469a25.745731 25.745731 0 0 0-2.633087 1.579852 52.193618 52.193618 0 0 1-4.212937 3.68632q-7.899258 6.319407-18.431603 14.218665t-12.112197 10.005728q-1.579852 1.053234-7.899258 5.851302c-4.564016 3.452268-9.830188 7.665206-15.798517 12.580301q-22.586028 18.431603-35.107815 27.384095-12.112196 10.005727-26.330861 21.064689-7.899258 6.319407-13.165431 10.005728a62.316372 62.316372 0 0 1-6.846024 5.851302 23.814801 23.814801 0 0 0-3.159703 2.106469l-3.159703 3.686321-4.212938 2.574573-2.047956 2.106469q-4.212938 2.633086-18.95822 14.218665-13.692048 11.058962-26.330862 20.538072a112.7546 112.7546 0 0 1-11.058961 8.952492l-5.266173 4.739556a5.441711 5.441711 0 0 0-2.106469 1.053234 17.553908 17.553908 0 0 0-2.633086 2.106469q-2.106469 1.579852-5.266172 4.212938a27.150044 27.150044 0 0 0-5.851303 5.266172q-8.30885 5.851303-32.591755 25.219114t-38.443057 30.017182a47.39555 47.39555 0 0 1-6.846024 4.739555 10.590858 10.590858 0 0 1-3.159703 2.106469c-0.702156-0.351078-5.558737-4.037399-14.68677-11.058962l-34.756737-27.910713q-21.591306-16.266621-43.650716-33.64499t-34.23012-27.910713l-21.591306-16.325134q-10.005727-7.899258-11.058962-8.425875c-2.106469-1.755391-5.851303-4.505503-10.473832-8.367363s-13.165431-10.707884-25.804244-20.538072q-11.702605-9.47911-23.40521-18.431603t-16.325134-13.457995c-7.723719-6.319407-13.633535-11.058962-17.553907-14.218666s-11.702605-9.245058-22.117924-17.553907q-43.1241-33.059859-51.023358-39.788857c-5.207659-4.212938-6.96305-6.319407-5.207659-6.319407 0.702156-0.702156 2.984164-2.633086 6.787511-5.851302s8.601415-6.787511 14.218665-11.000449z" fill="#FFFFFF" p-id="15324"></path></svg>