<svg t="1699000776311" class="icon" viewBox="0 0 1024 1024" version="1.1" xmlns="http://www.w3.org/2000/svg" p-id="1618" width="64" height="64"><path d="M512 0a512 512 0 1 1 0 1024A512 512 0 0 1 512 0zM445.312 201.856C458.88 295.04 392.96 395.264 331.52 472.576c-2.24-38.656-4.544-63.68-22.72-97.792-4.608 65.92-56.96 120.576-70.592 188.8-18.176 91.072 13.696 157.056 138.88 227.584 27.264 9.088 36.352-15.936 24.96-25.024-36.416-25.024-54.592-70.528-40.96-111.488 13.696-45.504 50.048-63.744 50.048-131.968 0 0 45.504 34.112 36.48 86.4 45.44-52.288 24.96-120.576 15.872-152.384 116.032 61.44 216.192 195.648 100.16 309.44-13.696 11.392 0 31.872 20.48 24.96 316.224-179.712 77.312-448.192 36.352-480 13.696 31.808 16 81.92-11.328 106.88-47.808-179.776-163.84-216.128-163.84-216.128z" fill="#f82006" p-id="1619"></path></svg>