<?xml version="1.0" standalone="no"?><!DOCTYPE svg PUBLIC "-//W3C//DTD SVG 1.1//EN" "http://www.w3.org/Graphics/SVG/1.1/DTD/svg11.dtd"><svg t="1698656191041" class="icon" viewBox="0 0 1024 1024" version="1.1" xmlns="http://www.w3.org/2000/svg" p-id="37158" xmlns:xlink="http://www.w3.org/1999/xlink" width="64" height="64"><path d="M512 144.9984c-225.0752 0-407.552 182.4768-407.552 407.552s182.4768 407.552 407.552 407.552 407.552-182.4768 407.552-407.552-182.4768-407.552-407.552-407.552z" fill="#DD9F05" p-id="37159"></path><path d="M512 187.904c-201.4208 0-364.6464 163.2256-364.6464 364.6464S310.5792 917.1968 512 917.1968s364.6464-163.2256 364.6464-364.6464S713.4208 187.904 512 187.904z" fill="#01579B" p-id="37160"></path><path d="M726.528 681.2672c19.6608 62.5664-46.4896 108.2368-98.304 108.2368-28.3648 0-63.488-10.8544-73.3184-43.8272-36.5568 19.456-67.8912 40.96-85.8112 53.9648v31.744h276.992c42.9056-35.9424 77.5168-81.408 100.1472-133.4272-18.2272-6.8608-55.7056-16.6912-119.7056-16.6912z m54.8864-373.8624c-84.8896 24.9856-145.2032 70.2464-172.7488 94.1056-18.944 57.4464-64.2048 120.6272-139.6736 172.544v150.1184s60.0064-109.568 202.0352-142.9504c92.5696-21.8112 172.544-27.9552 205.5168-29.696-0.2048-94.208-36.352-179.6096-95.1296-244.1216z" fill="#0277BD" p-id="37161"></path><path d="M746.1888 273.6128a361.94304 361.94304 0 0 0-66.2528-44.4416c-23.8592 11.0592-53.76 26.2144-82.1248 44.6464 13.5168 16.896 20.48 39.424 21.0944 65.2288 31.1296-22.1184 74.0352-47.104 127.2832-65.4336z" fill="#0091EA" p-id="37162"></path><path d="M512 230.8096c-177.664 0-321.7408 144.0768-321.7408 321.7408S334.336 874.2912 512 874.2912s321.7408-144.0768 321.7408-321.7408S689.664 230.8096 512 230.8096z" fill="#0277BD" p-id="37163"></path><path d="M631.1936 253.8496c-11.0592 6.144-22.3232 12.6976-33.3824 19.8656 13.5168 16.896 20.48 39.424 21.0944 65.2288 21.6064-15.2576 49.152-31.744 81.6128-46.6944a322.10944 322.10944 0 0 0-69.3248-38.4z" fill="#00B0FF" p-id="37164"></path><path d="M833.7408 552.5504c0-89.9072-36.864-171.008-96.3584-229.376-61.6448 25.2928-106.2912 58.88-128.7168 78.336-18.944 57.4464-64.2048 120.6272-139.6736 172.544v150.1184s60.0064-109.568 202.0352-142.9504c64.2048-15.0528 121.9584-22.6304 162.5088-26.4192 0.1024-0.8192 0.2048-1.536 0.2048-2.2528z" fill="#0091EA" p-id="37165"></path><path d="M843.8784 788.48H705.024v42.9056h103.6288A404.3776 404.3776 0 0 0 843.8784 788.48z m-374.784-641.1264v810.496c14.1312 1.4336 28.3648 2.2528 42.9056 2.2528v-815.104c-14.5408 0-28.7744 0.8192-42.9056 2.3552zM233.1648 849.2032a404.3776 404.3776 0 0 0 42.9056 35.2256V220.672a404.3776 404.3776 0 0 0-42.9056 35.2256v593.3056z" fill="#B3831D" p-id="37166"></path><path d="M233.1648 787.2512a369.9712 369.9712 0 0 0 42.9056 43.008V274.8416a369.9712 369.9712 0 0 0-42.9056 43.008v469.4016z" fill="#01579B" p-id="37167"></path><path d="M211.7632 59.1872h257.4336v772.1984H898.048L790.8352 960.1024H211.7632l64.3072-85.8112V144.9984l-64.3072-85.8112z" fill="#FFC107" p-id="37168"></path><path d="M512 788.48V187.904c-14.5408 0-28.7744 1.1264-42.9056 2.7648v640.7168h277.6064a369.9712 369.9712 0 0 0 43.008-42.9056H512z" fill="#01579B" p-id="37169"></path><path d="M512 539.5456a366.10048 366.10048 0 0 1-42.9056 34.4064v150.1184s13.6192-24.6784 42.9056-54.0672V539.5456z" fill="#0277BD" p-id="37170"></path><path d="M469.0944 831.3856V59.1872h-42.9056v815.104h436.1216l35.7376-42.9056H469.0944z" fill="#E8A30A" p-id="37171"></path><path d="M726.528 681.2672c19.6608 62.5664-46.4896 108.2368-98.304 108.2368-28.3648 0-63.488-10.8544-73.3184-43.8272-36.5568 19.456-67.8912 40.96-85.8112 53.9648v31.744h202.9568A322.65216 322.65216 0 0 0 803.9424 687.104c-19.6608-3.3792-45.1584-5.8368-77.4144-5.8368z" fill="#0091EA" p-id="37172"></path><path d="M776.9088 802.4064c4.1984-4.4032 7.8848-9.3184 11.776-13.9264H640.9216c-4.3008 0.6144-8.6016 0.9216-12.6976 0.9216-4.5056 0-9.1136-0.4096-13.824-0.9216H512v-17.92c-17.7152 11.1616-32.5632 21.504-42.9056 29.0816v31.744h276.992c10.6496-9.0112 20.7872-18.5344 30.4128-28.5696l0.4096-0.4096z" fill="#0277BD" p-id="37173"></path></svg>